<?xml version="1.0" encoding="UTF-8"?>
<!--Generator: Apple Native CoreSVG 123-->
<!DOCTYPE svg
PUBLIC "-//W3C//DTD SVG 1.1//EN"
       "http://www.w3.org/Graphics/SVG/1.1/DTD/svg11.dtd">
<svg version="1.1" xmlns="http://www.w3.org/2000/svg" xmlns:xlink="http://www.w3.org/1999/xlink" width="3300" height="2200">
 <!--glyph: "uni1002A9.medium", point size: 100.000000, font version: "Version 15.0d7e11", template writer version: "5"-->
 <g id="Notes">
  <rect height="2200" id="artboard" style="fill:white;opacity:1" width="3300" x="0" y="0"/>
  <line id="" style="fill:none;stroke:black;opacity:1;stroke-width:0.5;" x1="263" x2="3036" y1="292" y2="292"/>
  <text style="stroke:none;fill:black;font-family:-apple-system,&quot;SF Pro Display&quot;,&quot;SF Pro Text&quot;,Helvetica,sans-serif;font-weight:bold;" transform="matrix(1 0 0 1 263 322)">Weight/Scale Variations</text>
  <text style="stroke:none;fill:black;font-family:-apple-system,&quot;SF Pro Display&quot;,&quot;SF Pro Text&quot;,Helvetica,sans-serif;text-anchor:middle;" transform="matrix(1 0 0 1 559.711 322)">Ultralight</text>
  <text style="stroke:none;fill:black;font-family:-apple-system,&quot;SF Pro Display&quot;,&quot;SF Pro Text&quot;,Helvetica,sans-serif;text-anchor:middle;" transform="matrix(1 0 0 1 856.422 322)">Thin</text>
  <text style="stroke:none;fill:black;font-family:-apple-system,&quot;SF Pro Display&quot;,&quot;SF Pro Text&quot;,Helvetica,sans-serif;text-anchor:middle;" transform="matrix(1 0 0 1 1153.13 322)">Light</text>
  <text style="stroke:none;fill:black;font-family:-apple-system,&quot;SF Pro Display&quot;,&quot;SF Pro Text&quot;,Helvetica,sans-serif;text-anchor:middle;" transform="matrix(1 0 0 1 1449.84 322)">Regular</text>
  <text style="stroke:none;fill:black;font-family:-apple-system,&quot;SF Pro Display&quot;,&quot;SF Pro Text&quot;,Helvetica,sans-serif;text-anchor:middle;" transform="matrix(1 0 0 1 1746.56 322)">Medium</text>
  <text style="stroke:none;fill:black;font-family:-apple-system,&quot;SF Pro Display&quot;,&quot;SF Pro Text&quot;,Helvetica,sans-serif;text-anchor:middle;" transform="matrix(1 0 0 1 2043.27 322)">Semibold</text>
  <text style="stroke:none;fill:black;font-family:-apple-system,&quot;SF Pro Display&quot;,&quot;SF Pro Text&quot;,Helvetica,sans-serif;text-anchor:middle;" transform="matrix(1 0 0 1 2339.98 322)">Bold</text>
  <text style="stroke:none;fill:black;font-family:-apple-system,&quot;SF Pro Display&quot;,&quot;SF Pro Text&quot;,Helvetica,sans-serif;text-anchor:middle;" transform="matrix(1 0 0 1 2636.69 322)">Heavy</text>
  <text style="stroke:none;fill:black;font-family:-apple-system,&quot;SF Pro Display&quot;,&quot;SF Pro Text&quot;,Helvetica,sans-serif;text-anchor:middle;" transform="matrix(1 0 0 1 2933.4 322)">Black</text>
  <line id="" style="fill:none;stroke:black;opacity:1;stroke-width:0.5;" x1="263" x2="3036" y1="1903" y2="1903"/>
  <g id="" transform="matrix(1 0 0 1 263 1933)">
   <path d="M 9.24805 0.830078 C 13.5547 0.830078 17.1387 -2.74414 17.1387 -7.05078 C 17.1387 -11.3574 13.5449 -14.9316 9.23828 -14.9316 C 4.94141 -14.9316 1.36719 -11.3574 1.36719 -7.05078 C 1.36719 -2.74414 4.95117 0.830078 9.24805 0.830078 Z M 9.24805 -0.654297 C 5.70312 -0.654297 2.87109 -3.49609 2.87109 -7.05078 C 2.87109 -10.6055 5.69336 -13.4473 9.23828 -13.4473 C 12.793 -13.4473 15.6348 -10.6055 15.6445 -7.05078 C 15.6543 -3.49609 12.8027 -0.654297 9.24805 -0.654297 Z M 9.22852 -3.42773 C 9.69727 -3.42773 9.9707 -3.74023 9.9707 -4.25781 L 9.9707 -6.31836 L 12.1973 -6.31836 C 12.6953 -6.31836 13.0371 -6.57227 13.0371 -7.04102 C 13.0371 -7.51953 12.7148 -7.7832 12.1973 -7.7832 L 9.9707 -7.7832 L 9.9707 -10.0098 C 9.9707 -10.5273 9.69727 -10.8496 9.22852 -10.8496 C 8.75977 -10.8496 8.50586 -10.5078 8.50586 -10.0098 L 8.50586 -7.7832 L 6.29883 -7.7832 C 5.78125 -7.7832 5.44922 -7.51953 5.44922 -7.04102 C 5.44922 -6.57227 5.80078 -6.31836 6.29883 -6.31836 L 8.50586 -6.31836 L 8.50586 -4.25781 C 8.50586 -3.75977 8.75977 -3.42773 9.22852 -3.42773 Z"/>
  </g>
  <g id="" transform="matrix(1 0 0 1 281.506 1933)">
   <path d="M 11.709 2.91016 C 17.1582 2.91016 21.6699 -1.60156 21.6699 -7.05078 C 21.6699 -12.4902 17.1484 -17.0117 11.6992 -17.0117 C 6.25977 -17.0117 1.74805 -12.4902 1.74805 -7.05078 C 1.74805 -1.60156 6.26953 2.91016 11.709 2.91016 Z M 11.709 1.25 C 7.09961 1.25 3.41797 -2.44141 3.41797 -7.05078 C 3.41797 -11.6504 7.08984 -15.3516 11.6992 -15.3516 C 16.3086 -15.3516 20 -11.6504 20.0098 -7.05078 C 20.0195 -2.44141 16.3184 1.25 11.709 1.25 Z M 11.6895 -2.41211 C 12.207 -2.41211 12.5195 -2.77344 12.5195 -3.33984 L 12.5195 -6.23047 L 15.5762 -6.23047 C 16.123 -6.23047 16.5039 -6.51367 16.5039 -7.03125 C 16.5039 -7.55859 16.1426 -7.86133 15.5762 -7.86133 L 12.5195 -7.86133 L 12.5195 -10.9277 C 12.5195 -11.5039 12.207 -11.8555 11.6895 -11.8555 C 11.1719 -11.8555 10.8789 -11.4844 10.8789 -10.9277 L 10.8789 -7.86133 L 7.83203 -7.86133 C 7.26562 -7.86133 6.89453 -7.55859 6.89453 -7.03125 C 6.89453 -6.51367 7.28516 -6.23047 7.83203 -6.23047 L 10.8789 -6.23047 L 10.8789 -3.33984 C 10.8789 -2.79297 11.1719 -2.41211 11.6895 -2.41211 Z"/>
  </g>
  <g id="" transform="matrix(1 0 0 1 304.924 1933)">
   <path d="M 14.9707 5.67383 C 21.9336 5.67383 27.6953 -0.078125 27.6953 -7.04102 C 27.6953 -14.0039 21.9238 -19.7559 14.9609 -19.7559 C 8.00781 -19.7559 2.25586 -14.0039 2.25586 -7.04102 C 2.25586 -0.078125 8.01758 5.67383 14.9707 5.67383 Z M 14.9707 3.85742 C 8.93555 3.85742 4.08203 -1.00586 4.08203 -7.04102 C 4.08203 -13.0762 8.92578 -17.9395 14.9609 -17.9395 C 21.0059 -17.9395 25.8594 -13.0762 25.8691 -7.04102 C 25.8789 -1.00586 21.0156 3.85742 14.9707 3.85742 Z M 14.9512 -1.06445 C 15.5176 -1.06445 15.8691 -1.45508 15.8691 -2.06055 L 15.8691 -6.13281 L 20.1074 -6.13281 C 20.6934 -6.13281 21.1133 -6.46484 21.1133 -7.02148 C 21.1133 -7.59766 20.7227 -7.93945 20.1074 -7.93945 L 15.8691 -7.93945 L 15.8691 -12.1875 C 15.8691 -12.8027 15.5176 -13.1934 14.9512 -13.1934 C 14.3848 -13.1934 14.0625 -12.7832 14.0625 -12.1875 L 14.0625 -7.93945 L 9.83398 -7.93945 C 9.21875 -7.93945 8.80859 -7.59766 8.80859 -7.02148 C 8.80859 -6.46484 9.23828 -6.13281 9.83398 -6.13281 L 14.0625 -6.13281 L 14.0625 -2.06055 C 14.0625 -1.47461 14.3848 -1.06445 14.9512 -1.06445 Z"/>
  </g>
  <text style="stroke:none;fill:black;font-family:-apple-system,&quot;SF Pro Display&quot;,&quot;SF Pro Text&quot;,Helvetica,sans-serif;font-weight:bold;" transform="matrix(1 0 0 1 263 1953)">Design Variations</text>
  <text style="stroke:none;fill:black;font-family:-apple-system,&quot;SF Pro Display&quot;,&quot;SF Pro Text&quot;,Helvetica,sans-serif;" transform="matrix(1 0 0 1 263 1971)">Symbols are supported in up to nine weights and three scales.</text>
  <text style="stroke:none;fill:black;font-family:-apple-system,&quot;SF Pro Display&quot;,&quot;SF Pro Text&quot;,Helvetica,sans-serif;" transform="matrix(1 0 0 1 263 1989)">For optimal layout with text and other symbols, vertically align</text>
  <text style="stroke:none;fill:black;font-family:-apple-system,&quot;SF Pro Display&quot;,&quot;SF Pro Text&quot;,Helvetica,sans-serif;" transform="matrix(1 0 0 1 263 2007)">symbols with the adjacent text.</text>
  <rect height="14" id="" style="fill:#00AEEF;stroke:none;opacity:0.4;" width="3" x="776" y="1919"/>
  <g id="" transform="matrix(1 0 0 1 779 1933)">
   <path d="M 10.5273 0 L 12.373 0 L 7.17773 -14.0918 L 5.43945 -14.0918 L 0.244141 0 L 2.08984 0 L 3.50586 -4.0332 L 9.11133 -4.0332 Z M 6.2793 -11.9531 L 6.33789 -11.9531 L 8.59375 -5.52734 L 4.02344 -5.52734 Z"/>
  </g>
  <rect height="14" id="" style="fill:#00AEEF;stroke:none;opacity:0.4;" width="3" x="791.617" y="1919"/>
  <text style="stroke:none;fill:black;font-family:-apple-system,&quot;SF Pro Display&quot;,&quot;SF Pro Text&quot;,Helvetica,sans-serif;font-weight:bold;" transform="matrix(1 0 0 1 776 1953)">Margins</text>
  <text style="stroke:none;fill:black;font-family:-apple-system,&quot;SF Pro Display&quot;,&quot;SF Pro Text&quot;,Helvetica,sans-serif;" transform="matrix(1 0 0 1 776 1971)">Leading and trailing margins on the left and right side of each symbol</text>
  <text style="stroke:none;fill:black;font-family:-apple-system,&quot;SF Pro Display&quot;,&quot;SF Pro Text&quot;,Helvetica,sans-serif;" transform="matrix(1 0 0 1 776 1989)">can be adjusted by modifying the width of the blue rectangles.</text>
  <text style="stroke:none;fill:black;font-family:-apple-system,&quot;SF Pro Display&quot;,&quot;SF Pro Text&quot;,Helvetica,sans-serif;" transform="matrix(1 0 0 1 776 2007)">Modifications are automatically applied proportionally to all</text>
  <text style="stroke:none;fill:black;font-family:-apple-system,&quot;SF Pro Display&quot;,&quot;SF Pro Text&quot;,Helvetica,sans-serif;" transform="matrix(1 0 0 1 776 2025)">scales and weights.</text>
  <g id="" transform="matrix(1 0 0 1 1289 1933)">
   <path d="M 2.83203 3.11523 L 4.375 4.6582 C 5.22461 5.48828 6.19141 5.41992 7.06055 4.46289 L 17.2754 -6.66016 C 17.7051 -6.36719 18.0957 -6.37695 18.5645 -6.47461 L 19.6094 -6.68945 L 20.3027 -5.99609 L 20.2539 -5.47852 C 20.1855 -4.95117 20.3516 -4.53125 20.8496 -4.0332 L 21.6602 -3.22266 C 22.168 -2.71484 22.8223 -2.68555 23.3008 -3.16406 L 26.5527 -6.41602 C 27.0312 -6.89453 27.0117 -7.54883 26.5039 -8.05664 L 25.6836 -8.87695 C 25.1855 -9.375 24.7754 -9.55078 24.2383 -9.47266 L 23.7109 -9.41406 L 23.0566 -10.0781 L 23.3398 -11.2207 C 23.4863 -11.7871 23.3398 -12.2559 22.7148 -12.8613 L 20.3027 -15.2539 C 16.7578 -18.7793 12.2266 -18.6719 9.11133 -15.5371 C 8.69141 -15.1074 8.64258 -14.5215 8.91602 -14.0918 C 9.15039 -13.7207 9.62891 -13.4961 10.2734 -13.6621 C 11.7871 -14.043 13.3008 -13.9258 14.7852 -12.9199 L 14.1602 -11.3379 C 13.9258 -10.752 13.9453 -10.2734 14.1797 -9.83398 L 3.01758 0.439453 C 2.08008 1.30859 1.97266 2.25586 2.83203 3.11523 Z M 10.6738 -15.1465 C 13.3398 -17.1387 16.6504 -16.8262 19.0527 -14.4141 L 21.6797 -11.8066 C 21.9141 -11.5723 21.9434 -11.3867 21.8848 -11.0938 L 21.5039 -9.53125 L 23.0762 -7.95898 L 24.043 -8.04688 C 24.3262 -8.07617 24.4141 -8.05664 24.6387 -7.83203 L 25.2637 -7.20703 L 22.5098 -4.46289 L 21.8848 -5.07812 C 21.6602 -5.30273 21.6406 -5.40039 21.6699 -5.68359 L 21.7578 -6.64062 L 20.1953 -8.20312 L 18.5742 -7.89062 C 18.291 -7.83203 18.1445 -7.83203 17.9102 -8.07617 L 15.7324 -10.2539 C 15.5078 -10.4883 15.4785 -10.625 15.6055 -10.9473 L 16.5527 -13.2227 C 14.9512 -14.7559 12.8418 -15.6055 10.8008 -14.9512 C 10.7129 -14.9219 10.6445 -14.9414 10.6152 -14.9805 C 10.5859 -15.0293 10.5859 -15.0781 10.6738 -15.1465 Z M 4.10156 2.41211 C 3.61328 1.91406 3.78906 1.61133 4.12109 1.30859 L 15.0781 -8.80859 L 16.3086 -7.57812 L 6.15234 3.34961 C 5.84961 3.68164 5.46875 3.7793 5.06836 3.37891 Z"/>
  </g>
  <text style="stroke:none;fill:black;font-family:-apple-system,&quot;SF Pro Display&quot;,&quot;SF Pro Text&quot;,Helvetica,sans-serif;font-weight:bold;" transform="matrix(1 0 0 1 1289 1953)">Exporting</text>
  <text style="stroke:none;fill:black;font-family:-apple-system,&quot;SF Pro Display&quot;,&quot;SF Pro Text&quot;,Helvetica,sans-serif;" transform="matrix(1 0 0 1 1289 1971)">Symbols should be outlined when exporting to ensure the</text>
  <text style="stroke:none;fill:black;font-family:-apple-system,&quot;SF Pro Display&quot;,&quot;SF Pro Text&quot;,Helvetica,sans-serif;" transform="matrix(1 0 0 1 1289 1989)">design is preserved when submitting to Xcode.</text>
  <text id="template-version" style="stroke:none;fill:black;font-family:-apple-system,&quot;SF Pro Display&quot;,&quot;SF Pro Text&quot;,Helvetica,sans-serif;text-anchor:end;" transform="matrix(1 0 0 1 3036 1933)">Template v.1.0</text>
  <text style="stroke:none;fill:black;font-family:-apple-system,&quot;SF Pro Display&quot;,&quot;SF Pro Text&quot;,Helvetica,sans-serif;text-anchor:end;" transform="matrix(1 0 0 1 3036 1951)">Generated from speaker.3.fill</text>
  <text style="stroke:none;fill:black;font-family:-apple-system,&quot;SF Pro Display&quot;,&quot;SF Pro Text&quot;,Helvetica,sans-serif;text-anchor:end;" transform="matrix(1 0 0 1 3036 1969)">Typeset at 100 points</text>
  <text style="stroke:none;fill:black;font-family:-apple-system,&quot;SF Pro Display&quot;,&quot;SF Pro Text&quot;,Helvetica,sans-serif;" transform="matrix(1 0 0 1 263 726)">Small</text>
  <text style="stroke:none;fill:black;font-family:-apple-system,&quot;SF Pro Display&quot;,&quot;SF Pro Text&quot;,Helvetica,sans-serif;" transform="matrix(1 0 0 1 263 1156)">Medium</text>
  <text style="stroke:none;fill:black;font-family:-apple-system,&quot;SF Pro Display&quot;,&quot;SF Pro Text&quot;,Helvetica,sans-serif;" transform="matrix(1 0 0 1 263 1586)">Large</text>
 </g>
 <g id="Guides">
  <g id="H-reference" style="fill:#27AAE1;stroke:none;" transform="matrix(1 0 0 1 339 696)">
   <path d="M 54.9316 0 L 57.666 0 L 30.5664 -70.459 L 28.0762 -70.459 L 0.976562 0 L 3.66211 0 L 12.9395 -24.4629 L 45.7031 -24.4629 Z M 29.1992 -67.0898 L 29.4434 -67.0898 L 44.8242 -26.709 L 13.8184 -26.709 Z"/>
  </g>
  <line id="Baseline-S" style="fill:none;stroke:#27AAE1;opacity:1;stroke-width:0.577;" x1="263" x2="3036" y1="696" y2="696"/>
  <line id="Capline-S" style="fill:none;stroke:#27AAE1;opacity:1;stroke-width:0.577;" x1="263" x2="3036" y1="625.541" y2="625.541"/>
  <g id="H-reference" style="fill:#27AAE1;stroke:none;" transform="matrix(1 0 0 1 339 1126)">
   <path d="M 54.9316 0 L 57.666 0 L 30.5664 -70.459 L 28.0762 -70.459 L 0.976562 0 L 3.66211 0 L 12.9395 -24.4629 L 45.7031 -24.4629 Z M 29.1992 -67.0898 L 29.4434 -67.0898 L 44.8242 -26.709 L 13.8184 -26.709 Z"/>
  </g>
  <line id="Baseline-M" style="fill:none;stroke:#27AAE1;opacity:1;stroke-width:0.577;" x1="263" x2="3036" y1="1126" y2="1126"/>
  <line id="Capline-M" style="fill:none;stroke:#27AAE1;opacity:1;stroke-width:0.577;" x1="263" x2="3036" y1="1055.54" y2="1055.54"/>
  <g id="H-reference" style="fill:#27AAE1;stroke:none;" transform="matrix(1 0 0 1 339 1556)">
   <path d="M 54.9316 0 L 57.666 0 L 30.5664 -70.459 L 28.0762 -70.459 L 0.976562 0 L 3.66211 0 L 12.9395 -24.4629 L 45.7031 -24.4629 Z M 29.1992 -67.0898 L 29.4434 -67.0898 L 44.8242 -26.709 L 13.8184 -26.709 Z"/>
  </g>
  <line id="Baseline-L" style="fill:none;stroke:#27AAE1;opacity:1;stroke-width:0.577;" x1="263" x2="3036" y1="1556" y2="1556"/>
  <line id="Capline-L" style="fill:none;stroke:#27AAE1;opacity:1;stroke-width:0.577;" x1="263" x2="3036" y1="1485.54" y2="1485.54"/>
  <rect height="119.336" id="left-margin" style="fill:#00AEEF;stroke:none;opacity:0.4;" width="9.375" x="1370.84" y="1030.79"/>
  <rect height="119.336" id="right-margin" style="fill:#00AEEF;stroke:none;opacity:0.4;" width="8.20312" x="1520.65" y="1030.79"/>
 </g>
 <g id="Symbols">
  <g id="Black-L" transform="matrix(1 0 0 1 2815.5 1556)">
   <path d="M 191.943 35.6445 C 196.924 38.5254 202.93 37.0605 205.957 32.1289 C 217.871 12.7441 224.756 -10.4492 224.756 -35.1074 C 224.756 -59.7656 217.773 -82.9102 205.957 -102.344 C 202.93 -107.275 196.924 -108.691 191.943 -105.859 C 186.719 -102.832 185.938 -96.4355 189.307 -90.6738 C 198.975 -74.6582 204.541 -55.4199 204.541 -35.1074 C 204.541 -14.7461 198.975 4.49219 189.307 20.5078 C 185.938 26.2695 186.719 32.666 191.943 35.6445 Z M 89.5996 26.416 C 96.5332 26.416 101.807 21.1426 101.807 14.209 L 101.807 -84.4727 C 101.807 -91.3574 96.5332 -96.7773 89.5508 -96.7773 C 85.3027 -96.7773 81.9336 -95.1172 77.3438 -90.918 L 50.5371 -66.6504 C 50.1465 -66.3574 49.9023 -66.2598 49.5117 -66.2598 L 32.8613 -66.2598 C 20.7031 -66.2598 14.1113 -59.375 14.1113 -46.6797 L 14.1113 -23.7305 C 14.1113 -10.9863 20.7031 -4.15039 32.8613 -4.15039 L 49.5117 -4.15039 C 49.9023 -4.15039 50.1953 -4.10156 50.5371 -3.75977 L 77.3438 20.7031 C 81.6895 24.6094 85.1074 26.416 89.5996 26.416 Z M 159.424 16.8945 C 164.258 19.6289 170.068 18.457 173.096 13.7207 C 182.08 -0.195312 187.158 -17.1387 187.158 -35.1074 C 187.158 -53.0273 182.129 -70.0684 173.096 -83.9355 C 170.068 -88.623 164.258 -89.8438 159.424 -87.1094 C 153.955 -83.9844 153.369 -77.4902 156.982 -71.5332 C 163.33 -61.1328 166.895 -48.3887 166.895 -35.1074 C 166.895 -21.7773 163.281 -9.08203 156.982 1.31836 C 153.418 7.27539 153.955 13.8184 159.424 16.8945 Z M 126.709 -2.00195 C 131.396 0.78125 137.061 -0.292969 139.941 -4.29688 C 146.045 -12.8418 149.463 -23.6328 149.463 -35.1074 C 149.463 -46.5332 146.045 -57.3242 139.941 -65.8691 C 137.061 -69.9219 131.396 -70.9961 126.709 -68.1641 C 121.68 -65.0879 120.508 -59.1797 124.658 -52.0996 C 127.588 -47.3145 129.248 -41.2598 129.248 -35.1074 C 129.248 -28.9062 127.588 -22.9004 124.658 -18.1152 C 120.557 -10.9863 121.68 -5.07812 126.709 -2.00195 Z"/>
  </g>
  <g id="Heavy-L" transform="matrix(1 0 0 1 2522.77 1556)">
   <path d="M 186.035 33.3984 C 190.283 35.8887 195.508 34.668 198.145 30.3711 C 210.01 11.6699 216.846 -10.9863 216.846 -35.1562 C 216.846 -59.2773 209.912 -81.9336 198.145 -100.635 C 195.508 -104.98 190.283 -106.152 186.035 -103.662 C 181.543 -101.025 180.859 -95.5078 183.789 -90.5762 C 193.555 -74.7559 199.414 -55.5664 199.414 -35.1562 C 199.414 -14.6973 193.701 4.63867 183.789 20.3125 C 180.811 25.2441 181.543 30.7617 186.035 33.3984 Z M 87.5977 25.293 C 93.7988 25.293 98.4863 20.6055 98.4863 14.4531 L 98.4863 -84.668 C 98.4863 -90.8203 93.7988 -95.7031 87.5488 -95.7031 C 83.6426 -95.7031 80.6152 -94.1406 76.416 -90.2832 L 49.2188 -65.4297 C 48.8281 -65.0391 48.4863 -64.9414 48.0469 -64.9414 L 30.7617 -64.9414 C 19.5801 -64.9414 13.4277 -58.5938 13.4277 -46.8262 L 13.4277 -23.4863 C 13.4277 -11.7676 19.5801 -5.37109 30.7617 -5.37109 L 48.0469 -5.37109 C 48.4863 -5.37109 48.877 -5.32227 49.2188 -4.93164 L 76.416 20.0684 C 80.3711 23.6816 83.4961 25.293 87.5977 25.293 Z M 155.176 15.0391 C 159.375 17.4316 164.453 16.4062 167.09 12.3047 C 175.977 -1.02539 180.957 -17.5781 180.957 -35.1562 C 180.957 -52.6855 176.025 -69.2871 167.09 -82.5684 C 164.404 -86.6699 159.375 -87.6953 155.176 -85.3027 C 150.537 -82.5684 150.049 -77.002 153.174 -71.9238 C 159.619 -61.5234 163.428 -48.6816 163.428 -35.1562 C 163.428 -21.582 159.668 -8.69141 153.125 1.66016 C 150.049 6.73828 150.537 12.3047 155.176 15.0391 Z M 124.316 -3.41797 C 128.32 -0.976562 133.252 -1.9043 135.84 -5.46875 C 141.65 -13.5254 145.02 -24.0234 145.02 -35.1562 C 145.02 -46.2402 141.65 -56.7383 135.84 -64.7949 C 133.252 -68.3594 128.32 -69.2871 124.316 -66.8457 C 119.971 -64.1113 118.945 -58.9355 122.559 -52.9785 C 125.684 -48.1445 127.49 -41.6992 127.49 -35.1562 C 127.49 -28.5156 125.635 -22.1191 122.51 -17.2363 C 118.994 -11.2793 119.971 -6.15234 124.316 -3.41797 Z"/>
  </g>
  <g id="Bold-L" transform="matrix(1 0 0 1 2230.53 1556)">
   <path d="M 179.395 30.8594 C 182.812 32.959 187.158 31.9824 189.453 28.418 C 201.221 10.498 208.008 -11.5723 208.008 -35.2051 C 208.008 -58.7891 201.123 -80.8105 189.453 -98.7793 C 187.158 -102.393 182.861 -103.369 179.395 -101.221 C 175.732 -99.0234 175.195 -94.4824 177.637 -90.4785 C 187.549 -74.8535 193.652 -55.7129 193.652 -35.2051 C 193.652 -14.6484 187.793 4.73633 177.637 20.1172 C 175.146 24.1211 175.732 28.6133 179.395 30.8594 Z M 85.3516 24.1211 C 90.7715 24.1211 94.7754 20.0195 94.7754 14.6484 L 94.7754 -84.8633 C 94.7754 -90.2344 90.7715 -94.5312 85.3027 -94.5312 C 81.7383 -94.5312 79.1016 -93.0176 75.3906 -89.5996 L 47.8027 -64.0137 C 47.3633 -63.623 46.9238 -63.4766 46.3867 -63.4766 L 28.418 -63.4766 C 18.2617 -63.4766 12.6465 -57.666 12.6465 -47.0215 L 12.6465 -23.2422 C 12.6465 -12.5977 18.2617 -6.78711 28.418 -6.78711 L 46.3867 -6.78711 C 46.9238 -6.78711 47.4121 -6.64062 47.8027 -6.29883 L 75.3906 19.3848 C 78.8574 22.6074 81.7383 24.1211 85.3516 24.1211 Z M 150.488 12.8906 C 153.955 14.9902 158.154 14.1113 160.4 10.6934 C 169.092 -2.00195 174.023 -18.1152 174.023 -35.2051 C 174.023 -52.2461 169.189 -68.4082 160.4 -81.0547 C 158.105 -84.4727 153.955 -85.3516 150.488 -83.252 C 146.729 -81.0059 146.289 -76.4648 148.877 -72.3145 C 155.518 -61.9629 159.57 -48.9746 159.57 -35.2051 C 159.57 -21.3379 155.615 -8.30078 148.877 2.00195 C 146.289 6.10352 146.729 10.6445 150.488 12.8906 Z M 121.631 -5.0293 C 124.902 -2.92969 129.053 -3.71094 131.25 -6.78711 C 136.768 -14.3066 139.99 -24.5117 139.99 -35.2051 C 139.99 -45.8984 136.768 -56.0547 131.25 -63.623 C 129.053 -66.6504 124.902 -67.4316 121.631 -65.332 C 118.018 -63.0371 117.236 -58.6914 120.166 -54.0039 C 123.535 -49.0723 125.537 -42.2363 125.537 -35.2051 C 125.537 -28.125 123.486 -21.2891 120.117 -16.3086 C 117.236 -11.6211 118.018 -7.32422 121.631 -5.0293 Z"/>
  </g>
  <g id="Semibold-L" transform="matrix(1 0 0 1 1936.89 1556)">
   <path d="M 174.805 29.1016 C 177.734 30.957 181.445 30.127 183.447 27.0508 C 195.166 9.66797 201.904 -12.0117 201.904 -35.2051 C 201.904 -58.3984 195.02 -80.0781 183.447 -97.4609 C 181.445 -100.586 177.734 -101.416 174.805 -99.5117 C 171.729 -97.6074 171.24 -93.75 173.389 -90.3809 C 183.398 -74.9023 189.648 -55.8105 189.648 -35.2051 C 189.648 -14.5996 183.74 4.83398 173.34 19.9707 C 171.24 23.3398 171.729 27.1484 174.805 29.1016 Z M 83.8379 23.2422 C 88.6719 23.2422 92.2363 19.6289 92.2363 14.7949 L 92.2363 -85.0098 C 92.2363 -89.7949 88.6719 -93.7012 83.7402 -93.7012 C 80.4688 -93.7012 78.0762 -92.2852 74.6582 -89.1113 L 46.8262 -63.0371 C 46.3379 -62.6465 45.8496 -62.4512 45.2637 -62.4512 L 26.8066 -62.4512 C 17.3828 -62.4512 12.1094 -57.0312 12.1094 -47.168 L 12.1094 -23.0469 C 12.1094 -13.1836 17.3828 -7.76367 26.8066 -7.76367 L 45.2637 -7.76367 C 45.8496 -7.76367 46.3867 -7.61719 46.8262 -7.17773 L 74.6582 18.9453 C 77.832 21.875 80.4688 23.2422 83.8379 23.2422 Z M 147.217 11.4746 C 150.195 13.2812 153.809 12.5488 155.762 9.61914 C 164.404 -2.68555 169.238 -18.457 169.238 -35.2051 C 169.238 -51.9531 164.453 -67.8223 155.762 -80.0293 C 153.76 -82.959 150.195 -83.7402 147.217 -81.8848 C 144.092 -79.9316 143.701 -76.0742 145.947 -72.6074 C 152.686 -62.2559 156.934 -49.2188 156.934 -35.2051 C 156.934 -21.1914 152.832 -8.00781 145.898 2.24609 C 143.701 5.66406 144.092 9.52148 147.217 11.4746 Z M 119.775 -6.10352 C 122.559 -4.29688 126.123 -4.93164 128.076 -7.66602 C 133.398 -14.8438 136.572 -24.8047 136.572 -35.2051 C 136.572 -45.6543 133.398 -55.5664 128.076 -62.793 C 126.123 -65.4785 122.559 -66.1133 119.775 -64.3066 C 116.65 -62.2559 116.016 -58.5449 118.555 -54.6875 C 122.021 -49.707 124.219 -42.5781 124.219 -35.2051 C 124.219 -27.832 121.973 -20.7031 118.457 -15.625 C 116.064 -11.8164 116.65 -8.1543 119.775 -6.10352 Z"/>
  </g>
  <g id="Medium-L" transform="matrix(1 0 0 1 1642.5 1556)">
   <path d="M 171.338 27.7832 C 173.828 29.4434 177.1 28.7109 178.906 26.0254 C 190.576 9.08203 197.266 -12.3047 197.266 -35.2539 C 197.266 -58.1543 190.43 -79.4922 178.906 -96.4844 C 177.1 -99.2188 173.828 -99.9023 171.338 -98.2422 C 168.701 -96.5332 168.311 -93.2129 170.166 -90.332 C 180.225 -74.9512 186.621 -55.8594 186.621 -35.2539 C 186.621 -14.5996 180.664 4.93164 170.117 19.873 C 168.262 22.7539 168.652 26.0742 171.338 27.7832 Z M 82.666 22.6074 C 87.1094 22.6074 90.2832 19.3359 90.2832 14.9414 L 90.2832 -85.1074 C 90.2832 -89.502 87.1094 -93.0664 82.5684 -93.0664 C 79.4922 -93.0664 77.2949 -91.6992 74.1211 -88.7695 L 46.0449 -62.3047 C 45.6055 -61.8652 45.0684 -61.6699 44.3848 -61.6699 L 25.5859 -61.6699 C 16.6992 -61.6699 11.6699 -56.543 11.6699 -47.2656 L 11.6699 -22.9492 C 11.6699 -13.623 16.6992 -8.49609 25.5859 -8.49609 L 44.3848 -8.49609 C 45.0684 -8.49609 45.6055 -8.30078 46.0449 -7.86133 L 74.1211 18.6035 C 77.0508 21.3379 79.541 22.6074 82.666 22.6074 Z M 144.775 10.3516 C 147.363 12.0117 150.488 11.3281 152.295 8.78906 C 160.791 -3.17383 165.625 -18.7012 165.625 -35.2539 C 165.625 -51.7578 160.889 -67.3828 152.295 -79.248 C 150.439 -81.8359 147.363 -82.4707 144.775 -80.8105 C 142.09 -79.1016 141.748 -75.8301 143.701 -72.8516 C 150.537 -62.5 154.883 -49.3652 154.883 -35.2539 C 154.883 -21.0938 150.732 -7.76367 143.652 2.39258 C 141.748 5.32227 142.09 8.64258 144.775 10.3516 Z M 118.408 -6.93359 C 120.752 -5.37109 123.877 -5.85938 125.684 -8.34961 C 130.811 -15.2344 133.936 -25.0488 133.936 -35.2539 C 133.936 -45.459 130.811 -55.2246 125.684 -62.1582 C 123.877 -64.5996 120.801 -65.1367 118.408 -63.5254 C 115.625 -61.6699 115.137 -58.3984 117.285 -55.2246 C 120.898 -50.1465 123.193 -42.8223 123.193 -35.2539 C 123.193 -27.5879 120.85 -20.2637 117.236 -15.1367 C 115.137 -12.0117 115.625 -8.78906 118.408 -6.93359 Z"/>
  </g>
  <g id="Regular-L" transform="matrix(1 0 0 1 1348.84 1556)">
   <path d="M 166.797 26.0742 C 168.75 27.4414 171.387 26.8555 172.949 24.707 C 184.57 8.25195 191.26 -12.7441 191.26 -35.2539 C 191.26 -57.8125 184.424 -78.7598 172.949 -95.2148 C 171.387 -97.4609 168.799 -97.998 166.797 -96.582 C 164.746 -95.166 164.453 -92.4805 165.967 -90.2344 C 176.123 -75 182.715 -55.957 182.715 -35.2539 C 182.715 -14.5508 176.66 4.98047 165.918 19.7754 C 164.355 21.9727 164.697 24.6094 166.797 26.0742 Z M 81.1523 21.7773 C 85.0586 21.7773 87.7441 18.9453 87.7441 15.0879 L 87.7441 -85.2051 C 87.7441 -89.0625 85.0586 -92.2363 81.0547 -92.2363 C 78.2227 -92.2363 76.2695 -90.9668 73.3887 -88.2812 L 45.0684 -61.3281 C 44.5801 -60.8887 43.9941 -60.6934 43.2617 -60.6934 L 23.9746 -60.6934 C 15.8203 -60.6934 11.1328 -55.957 11.1328 -47.3633 L 11.1328 -22.7539 C 11.1328 -14.209 15.8203 -9.42383 23.9746 -9.42383 L 43.2617 -9.42383 C 43.9941 -9.42383 44.5801 -9.22852 45.0684 -8.78906 L 73.3887 18.1152 C 76.0254 20.6055 78.3203 21.7773 81.1523 21.7773 Z M 141.553 8.93555 C 143.652 10.3027 146.191 9.76562 147.705 7.66602 C 156.152 -3.85742 160.889 -19.043 160.889 -35.2539 C 160.889 -51.4648 156.25 -66.7969 147.705 -78.2227 C 146.143 -80.3223 143.652 -80.8594 141.553 -79.4434 C 139.502 -78.0762 139.209 -75.4395 140.82 -73.1445 C 147.754 -62.793 152.246 -49.5605 152.246 -35.2539 C 152.246 -20.9473 147.998 -7.51953 140.771 2.63672 C 139.209 4.88281 139.502 7.51953 141.553 8.93555 Z M 116.553 -8.00781 C 118.408 -6.68945 120.996 -7.12891 122.559 -9.22852 C 127.49 -15.7715 130.518 -25.3418 130.518 -35.2539 C 130.518 -45.2148 127.49 -54.7363 122.559 -61.3281 C 120.996 -63.4277 118.457 -63.8184 116.553 -62.5488 C 114.307 -60.9375 113.965 -58.252 115.674 -55.9082 C 119.434 -50.7812 121.875 -43.1641 121.875 -35.2539 C 121.875 -27.2949 119.336 -19.6777 115.576 -14.502 C 113.965 -12.207 114.307 -9.61914 116.553 -8.00781 Z"/>
  </g>
  <g id="Light-L" transform="matrix(1 0 0 1 1053.43 1556)">
   <path d="M 165.43 25.293 C 166.895 26.3672 168.945 25.9277 170.117 24.2676 C 181.641 7.91016 188.477 -12.6953 188.477 -35.2539 C 188.477 -57.8613 181.543 -78.418 170.117 -94.8242 C 168.945 -96.5332 166.943 -96.9238 165.43 -95.8496 C 163.867 -94.7754 163.574 -92.7246 164.795 -90.9668 C 175 -75.3906 181.934 -56.4941 181.934 -35.2539 C 181.934 -14.0137 175.83 5.61523 164.697 20.5078 C 163.477 22.168 163.818 24.2188 165.43 25.293 Z M 78.9551 20.7031 C 82.373 20.7031 84.5703 18.2129 84.5703 14.8926 L 84.5703 -85.2051 C 84.5703 -88.5254 82.373 -91.2109 78.9062 -91.2109 C 76.5137 -91.2109 74.7559 -90.0391 72.4609 -87.9395 L 43.5547 -60.1562 C 42.9688 -59.668 42.2852 -59.375 41.4062 -59.375 L 21.4844 -59.375 C 14.4043 -59.375 9.81445 -54.7852 9.81445 -47.4609 L 9.81445 -22.5098 C 9.81445 -15.1855 14.4043 -10.5957 21.4844 -10.5957 L 41.4062 -10.5957 C 42.2852 -10.5957 42.9688 -10.3516 43.5547 -9.81445 L 72.4609 17.627 C 74.5605 19.6289 76.5625 20.7031 78.9551 20.7031 Z M 140.381 8.25195 C 141.992 9.375 143.945 8.93555 145.117 7.32422 C 153.613 -4.05273 158.35 -18.9941 158.35 -35.2539 C 158.35 -51.5625 153.711 -66.5527 145.117 -77.8809 C 143.896 -79.4922 141.992 -79.8828 140.381 -78.8086 C 138.818 -77.7344 138.623 -75.7812 139.844 -73.9746 C 146.924 -63.2324 151.758 -50.0977 151.758 -35.2539 C 151.758 -20.4102 147.363 -6.83594 139.746 3.51562 C 138.574 5.22461 138.818 7.17773 140.381 8.25195 Z M 115.625 -8.59375 C 117.041 -7.56836 119.043 -7.86133 120.215 -9.47266 C 125.098 -15.8691 128.271 -25.2441 128.271 -35.2539 C 128.271 -45.3125 125.098 -54.6387 120.215 -61.084 C 119.043 -62.6953 117.09 -62.9883 115.625 -61.9629 C 113.916 -60.7422 113.623 -58.6914 114.99 -56.9336 C 118.945 -51.5137 121.631 -43.7012 121.631 -35.2539 C 121.631 -26.7578 118.848 -18.8477 114.844 -13.4277 C 113.623 -11.7676 113.916 -9.76562 115.625 -8.59375 Z"/>
  </g>
  <g id="Thin-L" transform="matrix(1 0 0 1 758.424 1556)">
   <path d="M 163.574 24.3164 C 164.453 24.9512 165.625 24.707 166.357 23.7305 C 177.783 7.42188 184.814 -12.5977 184.814 -35.2539 C 184.814 -57.9102 177.783 -77.9297 166.357 -94.2871 C 165.625 -95.2637 164.551 -95.5566 163.574 -94.873 C 162.695 -94.2871 162.5 -93.0176 163.184 -91.9434 C 173.486 -75.8301 180.908 -57.1289 180.908 -35.2539 C 180.908 -13.3301 174.707 6.39648 163.037 21.5332 C 162.354 22.4609 162.598 23.6816 163.574 24.3164 Z M 76.123 19.2871 C 78.8574 19.2871 80.3223 17.2363 80.3223 14.6484 L 80.3223 -85.1562 C 80.3223 -87.7441 78.8574 -89.8438 76.0742 -89.8438 C 74.1699 -89.8438 72.7051 -88.8184 71.2402 -87.5 L 41.5527 -58.5938 C 40.8691 -58.0078 40.0879 -57.666 39.0137 -57.666 L 18.1641 -57.666 C 12.5 -57.666 8.10547 -53.2715 8.10547 -47.5586 L 8.10547 -22.2168 C 8.10547 -16.5039 12.5 -12.1094 18.1641 -12.1094 L 39.0137 -12.1094 C 40.0879 -12.1094 40.8691 -11.8164 41.5527 -11.1816 L 71.2402 16.9922 C 72.6562 18.3105 74.2188 19.2871 76.123 19.2871 Z M 138.867 7.42188 C 139.844 8.10547 140.967 7.8125 141.65 6.88477 C 150.293 -4.29688 154.98 -18.8965 154.98 -35.2539 C 154.98 -51.6602 150.293 -66.2109 141.65 -77.4414 C 140.967 -78.3691 139.844 -78.6133 138.867 -77.9785 C 137.939 -77.2949 137.891 -76.1719 138.574 -75.0977 C 145.801 -63.916 151.025 -50.7812 151.025 -35.2539 C 151.025 -19.6777 146.582 -5.9082 138.428 4.6875 C 137.744 5.61523 137.939 6.73828 138.867 7.42188 Z M 114.355 -9.32617 C 115.234 -8.69141 116.406 -8.88672 117.09 -9.76562 C 121.924 -16.0156 125.293 -25.1465 125.293 -35.2539 C 125.293 -45.459 121.924 -54.541 117.09 -60.7422 C 116.406 -61.6699 115.332 -61.8652 114.355 -61.1816 C 113.428 -60.498 113.232 -59.3262 114.062 -58.252 C 118.262 -52.4902 121.338 -44.4336 121.338 -35.2539 C 121.338 -25.9766 118.164 -17.7734 113.818 -12.0117 C 113.184 -11.1328 113.428 -10.0098 114.355 -9.32617 Z"/>
  </g>
  <g id="Ultralight-L" transform="matrix(1 0 0 1 462.592 1556)">
   <path d="M 162.646 23.8281 C 163.232 24.2188 163.965 24.1211 164.404 23.4863 C 175.83 7.12891 182.91 -12.5488 182.91 -35.2539 C 182.91 -57.959 175.83 -77.6855 164.404 -93.9941 C 163.965 -94.6289 163.281 -94.8242 162.646 -94.3848 C 162.061 -93.9941 161.914 -93.1641 162.354 -92.4316 C 172.705 -76.0742 180.371 -57.4707 180.371 -35.2539 C 180.371 -12.9883 174.17 6.83594 162.207 22.0703 C 161.768 22.6074 162.012 23.3887 162.646 23.8281 Z M 74.6582 18.6035 C 77.0508 18.6035 78.1738 16.748 78.1738 14.5508 L 78.1738 -85.1074 C 78.1738 -87.3535 77.0508 -89.1113 74.6582 -89.1113 C 72.998 -89.1113 71.6309 -88.1836 70.6055 -87.2559 L 40.5273 -57.8125 C 39.7461 -57.1289 38.916 -56.7871 37.7441 -56.7871 L 16.4551 -56.7871 C 11.5234 -56.7871 7.22656 -52.4902 7.22656 -47.6074 L 7.22656 -22.0703 C 7.22656 -17.1875 11.5234 -12.8906 16.4551 -12.8906 L 37.7441 -12.8906 C 38.916 -12.8906 39.7461 -12.5488 40.5273 -11.8652 L 70.6055 16.6992 C 71.6797 17.627 72.998 18.6035 74.6582 18.6035 Z M 138.086 6.98242 C 138.77 7.42188 139.453 7.22656 139.893 6.68945 C 148.584 -4.44336 153.271 -18.8477 153.271 -35.2539 C 153.271 -51.709 148.584 -66.0645 139.893 -77.1973 C 139.453 -77.7832 138.77 -77.9785 138.086 -77.5391 C 137.451 -77.0508 137.5 -76.3672 137.939 -75.6836 C 145.215 -64.209 150.684 -51.123 150.684 -35.2539 C 150.684 -19.3359 146.143 -5.46875 137.744 5.32227 C 137.305 5.85938 137.451 6.54297 138.086 6.98242 Z M 113.721 -9.7168 C 114.307 -9.22852 115.088 -9.375 115.527 -9.91211 C 120.312 -16.0645 123.73 -25.0977 123.73 -35.2539 C 123.73 -45.5078 120.312 -54.4434 115.527 -60.5957 C 115.088 -61.1816 114.404 -61.2793 113.721 -60.8398 C 113.184 -60.4004 113.037 -59.6191 113.574 -58.9355 C 117.871 -52.9785 121.191 -44.7754 121.191 -35.2539 C 121.191 -25.5859 117.822 -17.2363 113.281 -11.2793 C 112.939 -10.8398 113.184 -10.1562 113.721 -9.7168 Z"/>
  </g>
  <g id="Black-M" transform="matrix(1 0 0 1 2837.36 1126)">
   <path d="M 156.055 22.3633 C 160.596 24.8535 166.016 23.5352 168.555 19.1406 C 177.881 3.17383 183.35 -15.2344 183.35 -35.0586 C 183.35 -54.8828 177.881 -73.291 168.555 -89.2578 C 166.016 -93.7012 160.596 -95.0195 156.055 -92.4805 C 151.221 -89.8438 150.488 -84.0332 153.516 -78.7598 C 160.84 -65.8691 165.088 -50.9766 165.088 -35.0586 C 165.088 -19.1406 160.84 -4.24805 153.516 8.59375 C 150.488 13.916 151.221 19.7266 156.055 22.3633 Z M 70.9961 13.4277 C 77.0508 13.4277 81.6895 8.78906 81.6895 2.73438 L 81.6895 -73.1445 C 81.6895 -79.1504 77.0508 -83.8379 70.9961 -83.8379 C 67.4316 -83.8379 64.4531 -82.4219 60.6934 -79.0527 L 40.0879 -60.6445 C 39.7949 -60.4004 39.6484 -60.3516 39.4043 -60.3516 L 27.002 -60.3516 C 16.8457 -60.3516 11.1816 -54.4434 11.1816 -43.8965 L 11.1816 -26.4648 C 11.1816 -15.9668 16.8457 -10.0586 27.002 -10.0586 L 39.4043 -10.0586 C 39.6484 -10.0586 39.8438 -10.0586 40.0879 -9.81445 L 60.6934 8.64258 C 64.3555 11.9141 67.1387 13.4277 70.9961 13.4277 Z M 128.613 7.37305 C 132.959 9.76562 138.184 8.69141 140.82 4.44336 C 148.047 -6.98242 152.002 -20.5566 152.002 -35.0586 C 152.002 -49.5605 148.047 -63.1348 140.82 -74.6094 C 138.184 -78.8086 132.959 -79.8828 128.613 -77.4902 C 123.584 -74.707 123.047 -68.7988 126.27 -63.2812 C 131.055 -55.0781 133.74 -45.3613 133.74 -35.0586 C 133.74 -24.8047 131.055 -15.0879 126.27 -6.83594 C 123.047 -1.31836 123.584 4.58984 128.613 7.37305 Z M 100.928 -7.91016 C 105.225 -5.37109 110.254 -6.39648 112.744 -9.86328 C 117.822 -16.9922 120.703 -25.6836 120.703 -35.0586 C 120.703 -44.4824 117.822 -53.125 112.744 -60.3027 C 110.254 -63.7695 105.225 -64.7461 100.928 -62.2559 C 96.4844 -59.6191 95.3125 -54.2969 99.1211 -47.6074 C 101.221 -43.8477 102.393 -39.5996 102.393 -35.0586 C 102.393 -30.5176 101.221 -26.2695 99.1211 -22.5098 C 95.3125 -15.8203 96.4844 -10.5469 100.928 -7.91016 Z"/>
  </g>
  <g id="Heavy-M" transform="matrix(1 0 0 1 2544.65 1126)">
   <path d="M 149.902 20.0684 C 153.809 22.3145 158.496 21.1426 160.791 17.334 C 170.02 2.09961 175.439 -15.8691 175.439 -35.1074 C 175.439 -54.3457 170.02 -72.3145 160.791 -87.5488 C 158.496 -91.4062 153.809 -92.5293 149.902 -90.2832 C 145.801 -87.9883 145.166 -82.959 147.803 -78.418 C 155.273 -65.8691 159.619 -50.9766 159.619 -35.1074 C 159.619 -19.2383 155.322 -4.29688 147.803 8.20312 C 145.166 12.7441 145.801 17.7246 149.902 20.0684 Z M 69.3848 12.5 C 74.7559 12.5 78.9062 8.39844 78.9062 2.97852 L 78.9062 -73.3398 C 78.9062 -78.7109 74.7559 -82.9102 69.3359 -82.9102 C 66.0645 -82.9102 63.4277 -81.6406 59.9121 -78.4668 L 39.0625 -59.5703 C 38.7695 -59.3262 38.5742 -59.2285 38.2812 -59.2285 L 25.3418 -59.2285 C 15.9668 -59.2285 10.7422 -53.8574 10.7422 -44.0918 L 10.7422 -26.3184 C 10.7422 -16.5039 15.9668 -11.1328 25.3418 -11.1328 L 38.2812 -11.1328 C 38.5742 -11.1328 38.8184 -11.084 39.0625 -10.8398 L 59.9121 8.10547 C 63.2812 11.1328 65.8691 12.5 69.3848 12.5 Z M 124.316 5.46875 C 128.076 7.61719 132.617 6.64062 134.961 2.97852 C 141.992 -7.91016 145.898 -21.0938 145.898 -35.1074 C 145.898 -49.1699 141.992 -62.3535 134.961 -73.1934 C 132.617 -76.9043 128.076 -77.832 124.316 -75.6836 C 120.02 -73.291 119.58 -68.1641 122.363 -63.4766 C 127.246 -55.3711 130.078 -45.5078 130.078 -35.1074 C 130.078 -24.707 127.295 -14.8438 122.363 -6.73828 C 119.58 -2.05078 120.02 3.07617 124.316 5.46875 Z M 98.584 -9.27734 C 102.246 -7.08008 106.641 -7.95898 108.838 -11.0352 C 113.623 -17.7246 116.357 -26.123 116.357 -35.1074 C 116.357 -44.0918 113.623 -52.4902 108.838 -59.1797 C 106.641 -62.3047 102.246 -63.1348 98.584 -60.9375 C 94.6777 -58.5938 93.7012 -53.9551 96.9727 -48.3398 C 99.2676 -44.5801 100.537 -39.9414 100.537 -35.1074 C 100.537 -30.2734 99.2188 -25.6348 96.9727 -21.875 C 93.7012 -16.2598 94.6777 -11.6699 98.584 -9.27734 Z"/>
  </g>
  <g id="Bold-M" transform="matrix(1 0 0 1 2252.45 1126)">
   <path d="M 143.066 17.5293 C 146.191 19.3848 150.098 18.5059 152.1 15.2832 C 161.279 0.927734 166.602 -16.5527 166.602 -35.1562 C 166.602 -53.8086 161.23 -71.2402 152.1 -85.5957 C 150.098 -88.8184 146.191 -89.7461 143.066 -87.8418 C 139.697 -85.8887 139.209 -81.7871 141.406 -78.0762 C 148.975 -65.8691 153.564 -50.9766 153.564 -35.1562 C 153.564 -19.3359 149.121 -4.3457 141.406 7.76367 C 139.16 11.4258 139.697 15.5273 143.066 17.5293 Z M 67.5293 11.5234 C 72.2168 11.5234 75.7812 7.95898 75.7812 3.32031 L 75.7812 -73.584 C 75.7812 -78.2227 72.2168 -81.9336 67.4805 -81.9336 C 64.502 -81.9336 62.2559 -80.7129 59.0332 -77.7832 L 37.9395 -58.3984 C 37.6465 -58.1055 37.3535 -58.0078 36.9629 -58.0078 L 23.4863 -58.0078 C 14.9414 -58.0078 10.3027 -53.1738 10.3027 -44.2383 L 10.3027 -26.0742 C 10.3027 -17.1387 14.9414 -12.3047 23.4863 -12.3047 L 36.9629 -12.3047 C 37.3535 -12.3047 37.6465 -12.2559 37.9395 -11.9629 L 59.0332 7.51953 C 62.0605 10.2539 64.4531 11.5234 67.5293 11.5234 Z M 119.482 3.36914 C 122.607 5.17578 126.416 4.39453 128.418 1.31836 C 135.254 -8.88672 139.062 -21.6309 139.062 -35.1562 C 139.062 -48.6816 135.254 -61.4746 128.418 -71.6797 C 126.367 -74.7559 122.607 -75.5371 119.482 -73.6816 C 116.016 -71.6797 115.625 -67.5293 117.969 -63.7207 C 123.047 -55.6641 126.025 -45.7031 126.025 -35.1562 C 126.025 -24.6094 123.047 -14.5996 117.969 -6.5918 C 115.625 -2.83203 116.016 1.31836 119.482 3.36914 Z M 95.8984 -10.8398 C 98.877 -8.98438 102.588 -9.7168 104.541 -12.4023 C 108.984 -18.5547 111.572 -26.6602 111.572 -35.1562 C 111.572 -43.7012 108.984 -51.7578 104.541 -57.959 C 102.588 -60.6445 98.877 -61.3281 95.8984 -59.4727 C 92.627 -57.4219 91.8945 -53.5645 94.5801 -49.1699 C 97.0215 -45.3613 98.4863 -40.332 98.4863 -35.1562 C 98.4863 -29.9805 97.0215 -24.9512 94.5801 -21.1426 C 91.8945 -16.748 92.627 -12.8906 95.8984 -10.8398 Z"/>
  </g>
  <g id="Semibold-M" transform="matrix(1 0 0 1 1958.84 1126)">
   <path d="M 138.33 15.7715 C 140.967 17.4316 144.336 16.6504 146.143 13.8672 C 155.225 0.0976562 160.449 -16.9922 160.449 -35.2051 C 160.449 -53.3691 155.127 -70.459 146.143 -84.2773 C 144.336 -87.0605 140.967 -87.8418 138.33 -86.1816 C 135.498 -84.4238 135.059 -80.957 137.012 -77.832 C 144.678 -65.8691 149.365 -51.0254 149.365 -35.2051 C 149.365 -19.3848 144.824 -4.3457 137.012 7.4707 C 135.059 10.5469 135.498 14.0137 138.33 15.7715 Z M 66.3086 10.791 C 70.459 10.791 73.584 7.66602 73.584 3.51562 L 73.584 -73.7305 C 73.584 -77.8809 70.459 -81.2012 66.2109 -81.2012 C 63.4766 -81.2012 61.4258 -80.0781 58.4473 -77.3438 L 37.1582 -57.5684 C 36.8164 -57.2754 36.5234 -57.1777 36.084 -57.1777 L 22.2168 -57.1777 C 14.2578 -57.1777 9.96094 -52.7344 9.96094 -44.3848 L 9.96094 -25.9277 C 9.96094 -17.5781 14.2578 -13.1348 22.2168 -13.1348 L 36.084 -13.1348 C 36.5234 -13.1348 36.8652 -13.0371 37.1582 -12.7441 L 58.4473 7.12891 C 61.2305 9.66797 63.4277 10.791 66.3086 10.791 Z M 116.162 1.9043 C 118.848 3.51562 122.07 2.83203 123.877 0.195312 C 130.566 -9.57031 134.375 -22.0703 134.375 -35.2051 C 134.375 -48.3398 130.615 -60.8887 123.877 -70.6055 C 122.07 -73.2422 118.848 -73.9258 116.162 -72.3145 C 113.281 -70.5566 112.939 -67.041 114.941 -63.8672 C 120.117 -55.9082 123.193 -45.8496 123.193 -35.2051 C 123.193 -24.5605 120.117 -14.4531 114.941 -6.54297 C 112.939 -3.36914 113.281 0.146484 116.162 1.9043 Z M 94.0918 -11.9141 C 96.582 -10.3027 99.8047 -10.8887 101.514 -13.3301 C 105.762 -19.0918 108.252 -27.002 108.252 -35.2051 C 108.252 -43.4082 105.762 -51.2695 101.514 -57.0801 C 99.8047 -59.5215 96.582 -60.0586 94.0918 -58.4961 C 91.2109 -56.6406 90.6738 -53.2715 92.9199 -49.707 C 95.5078 -45.8984 97.0703 -40.625 97.0703 -35.2051 C 97.0703 -29.7852 95.459 -24.4629 92.9199 -20.6543 C 90.6738 -17.0898 91.2109 -13.7695 94.0918 -11.9141 Z"/>
  </g>
  <g id="Medium-M" transform="matrix(1 0 0 1 1664.48 1126)">
   <path d="M 134.717 14.4043 C 137.012 15.918 139.941 15.2344 141.602 12.8418 C 150.684 -0.488281 155.859 -17.3828 155.859 -35.2051 C 155.859 -53.0762 150.537 -69.9219 141.602 -83.252 C 139.941 -85.7422 137.012 -86.377 134.717 -84.8633 C 132.324 -83.3496 131.982 -80.3223 133.691 -77.6855 C 141.406 -65.8691 146.191 -51.0254 146.191 -35.2051 C 146.191 -19.4336 141.602 -4.39453 133.643 7.22656 C 131.934 9.86328 132.324 12.8906 134.717 14.4043 Z M 65.332 10.2539 C 69.1406 10.2539 71.9727 7.42188 71.9727 3.66211 L 71.9727 -73.8281 C 71.9727 -77.6367 69.1406 -80.6641 65.2832 -80.6641 C 62.6465 -80.6641 60.791 -79.5898 58.0078 -77.002 L 36.5723 -56.9336 C 36.2305 -56.6406 35.8887 -56.543 35.4492 -56.543 L 21.2402 -56.543 C 13.7695 -56.543 9.7168 -52.3926 9.7168 -44.4824 L 9.7168 -25.8301 C 9.7168 -17.9199 13.7695 -13.7695 21.2402 -13.7695 L 35.4492 -13.7695 C 35.8887 -13.7695 36.2793 -13.6719 36.5723 -13.3789 L 58.0078 6.78711 C 60.5957 9.17969 62.6953 10.2539 65.332 10.2539 Z M 113.623 0.78125 C 115.967 2.24609 118.848 1.66016 120.41 -0.683594 C 127.051 -10.1074 130.811 -22.3633 130.811 -35.2051 C 130.811 -48.0957 127.1 -60.4004 120.41 -69.7754 C 118.799 -72.1191 115.967 -72.7051 113.623 -71.2402 C 111.23 -69.7266 110.889 -66.6992 112.646 -63.9648 C 117.871 -56.1035 121.045 -45.8984 121.045 -35.2051 C 121.045 -24.5117 117.92 -14.3066 112.646 -6.44531 C 110.889 -3.75977 111.23 -0.732422 113.623 0.78125 Z M 92.6758 -12.7441 C 94.8242 -11.3281 97.6562 -11.8164 99.2676 -14.0137 C 103.32 -19.5312 105.713 -27.2461 105.713 -35.2051 C 105.713 -43.2129 103.32 -50.8789 99.2676 -56.4453 C 97.6562 -58.6426 94.8242 -59.1309 92.6758 -57.7148 C 90.1855 -56.0547 89.6973 -53.0762 91.6992 -50.1465 C 94.3848 -46.3379 95.9961 -40.8203 95.9961 -35.2051 C 95.9961 -29.6387 94.3359 -24.1211 91.6504 -20.2637 C 89.7461 -17.334 90.1855 -14.4043 92.6758 -12.7441 Z"/>
  </g>
  <g id="Regular-M" transform="matrix(1 0 0 1 1370.84 1126)">
   <path d="M 130.029 12.6953 C 131.836 13.916 134.229 13.4277 135.645 11.4258 C 144.678 -1.31836 149.805 -17.8223 149.805 -35.2539 C 149.805 -52.6855 144.531 -69.1406 135.645 -81.9336 C 134.229 -83.9844 131.836 -84.4727 130.029 -83.2031 C 128.174 -81.8848 127.881 -79.4922 129.297 -77.4414 C 137.158 -65.8691 142.041 -51.0254 142.041 -35.2539 C 142.041 -19.4824 137.354 -4.39453 129.297 6.93359 C 127.881 8.98438 128.174 11.377 130.029 12.6953 Z M 64.1113 9.57031 C 67.4316 9.57031 69.8242 7.12891 69.8242 3.85742 L 69.8242 -74.0234 C 69.8242 -77.2949 67.4316 -79.9805 64.0137 -79.9805 C 61.6211 -79.9805 60.0098 -78.9551 57.4219 -76.5137 L 35.791 -56.1523 C 35.4492 -55.8594 35.0586 -55.7129 34.5703 -55.7129 L 19.9707 -55.7129 C 13.0859 -55.7129 9.375 -51.9531 9.375 -44.5801 L 9.375 -25.6836 C 9.375 -18.3594 13.0859 -14.5996 19.9707 -14.5996 L 34.5703 -14.5996 C 35.0586 -14.5996 35.4492 -14.4531 35.791 -14.1602 L 57.4219 6.39648 C 59.7656 8.59375 61.7188 9.57031 64.1113 9.57031 Z M 110.352 -0.634766 C 112.256 0.634766 114.6 0.146484 115.967 -1.80664 C 122.412 -10.791 126.172 -22.7539 126.172 -35.2539 C 126.172 -47.8027 122.51 -59.8145 115.967 -68.75 C 114.551 -70.6543 112.256 -71.1426 110.352 -69.873 C 108.496 -68.6035 108.203 -66.2109 109.668 -64.1113 C 114.99 -56.2988 118.311 -46.0449 118.311 -35.2539 C 118.311 -24.4629 115.039 -14.1113 109.668 -6.39648 C 108.252 -4.29688 108.496 -1.9043 110.352 -0.634766 Z M 90.8691 -13.8184 C 92.5293 -12.6465 94.9219 -12.9883 96.3379 -14.9414 C 100.146 -20.0684 102.441 -27.5879 102.441 -35.2539 C 102.441 -42.9199 100.146 -50.3906 96.3379 -55.5664 C 94.9219 -57.5195 92.5781 -57.8613 90.8691 -56.7383 C 88.7695 -55.2734 88.4766 -52.7832 90.0391 -50.6836 C 92.8711 -46.875 94.5801 -41.0645 94.5801 -35.2539 C 94.5801 -29.4434 92.7734 -23.6328 89.9902 -19.7754 C 88.5254 -17.6758 88.7695 -15.2832 90.8691 -13.8184 Z"/>
  </g>
  <g id="Light-M" transform="matrix(1 0 0 1 1075.28 1126)">
   <path d="M 128.809 12.0117 C 130.176 12.9883 132.031 12.5977 133.105 11.084 C 142.09 -1.66016 147.314 -17.7734 147.314 -35.2539 C 147.314 -52.7344 141.992 -68.8477 133.105 -81.5918 C 132.031 -83.1543 130.225 -83.5449 128.809 -82.5684 C 127.393 -81.543 127.148 -79.6875 128.223 -78.0762 C 136.133 -66.1621 141.357 -51.4648 141.357 -35.2539 C 141.357 -19.043 136.621 -3.85742 128.174 7.61719 C 127.1 9.17969 127.344 10.9863 128.809 12.0117 Z M 62.1582 8.59375 C 65.0391 8.59375 66.9434 6.49414 66.9434 3.71094 L 66.9434 -73.9746 C 66.9434 -76.7578 65.0391 -79.0527 62.1094 -79.0527 C 60.0586 -79.0527 58.5938 -78.125 56.5918 -76.2207 L 34.4238 -55.0781 C 34.0332 -54.7363 33.5449 -54.541 32.9102 -54.541 L 17.7734 -54.541 C 11.8164 -54.541 8.20312 -50.9277 8.20312 -44.6777 L 8.20312 -25.4883 C 8.20312 -19.2383 11.8164 -15.625 17.7734 -15.625 L 32.9102 -15.625 C 33.5449 -15.625 34.0332 -15.4297 34.4238 -15.0879 L 56.5918 5.95703 C 58.4473 7.71484 60.1074 8.59375 62.1582 8.59375 Z M 109.326 -1.2207 C 110.791 -0.244141 112.549 -0.634766 113.623 -2.09961 C 120.166 -10.9863 123.877 -22.6562 123.877 -35.2539 C 123.877 -47.8516 120.264 -59.6191 113.623 -68.457 C 112.549 -69.9219 110.791 -70.2637 109.326 -69.2871 C 107.91 -68.3105 107.715 -66.5039 108.789 -64.8926 C 114.209 -56.7383 117.822 -46.5332 117.822 -35.2539 C 117.822 -23.9746 114.502 -13.5254 108.74 -5.56641 C 107.666 -4.00391 107.91 -2.19727 109.326 -1.2207 Z M 90.0391 -14.3066 C 91.3086 -13.3789 93.1152 -13.6719 94.1895 -15.1367 C 97.998 -20.166 100.391 -27.5391 100.391 -35.2539 C 100.391 -43.0176 97.998 -50.293 94.1895 -55.3711 C 93.1152 -56.8359 91.3574 -57.1289 90.0391 -56.2012 C 88.4766 -55.0781 88.1836 -53.2227 89.4043 -51.6113 C 92.3828 -47.5098 94.3848 -41.5527 94.3848 -35.2539 C 94.3848 -28.9062 92.334 -22.9004 89.3066 -18.7988 C 88.1836 -17.2363 88.4766 -15.4297 90.0391 -14.3066 Z"/>
  </g>
  <g id="Thin-M" transform="matrix(1 0 0 1 780.104 1126)">
   <path d="M 127.148 11.1328 C 127.979 11.7188 129.102 11.5234 129.736 10.5957 C 138.623 -2.09961 144.043 -17.7246 144.043 -35.2539 C 144.043 -52.7832 138.574 -68.4082 129.736 -81.1035 C 129.102 -82.0312 128.027 -82.2754 127.148 -81.6895 C 126.318 -81.1035 126.172 -79.9316 126.807 -78.9551 C 134.766 -66.6016 140.43 -52.0508 140.43 -35.2539 C 140.43 -18.4082 135.645 -3.125 126.709 8.54492 C 126.074 9.42383 126.27 10.5469 127.148 11.1328 Z M 59.6191 7.32422 C 61.8652 7.32422 63.1836 5.66406 63.1836 3.4668 L 63.1836 -73.9258 C 63.1836 -76.0742 61.8652 -77.832 59.5703 -77.832 C 58.0078 -77.832 56.7871 -77.0508 55.4688 -75.8301 L 32.6172 -53.6621 C 32.1289 -53.2227 31.543 -52.9785 30.7617 -52.9785 L 14.7949 -52.9785 C 10.1074 -52.9785 6.64062 -49.5605 6.64062 -44.7754 L 6.64062 -25.2441 C 6.64062 -20.4102 10.1074 -16.9922 14.7949 -16.9922 L 30.7617 -16.9922 C 31.543 -16.9922 32.1289 -16.748 32.6172 -16.3086 L 55.4688 5.37109 C 56.7383 6.54297 58.0078 7.32422 59.6191 7.32422 Z M 107.959 -2.00195 C 108.838 -1.36719 109.912 -1.61133 110.498 -2.49023 C 117.188 -11.2305 120.85 -22.6074 120.85 -35.2539 C 120.85 -47.9492 117.236 -59.3262 110.498 -68.0176 C 109.863 -68.8965 108.838 -69.1406 107.959 -68.5059 C 107.08 -67.9199 107.031 -66.8945 107.666 -65.8691 C 113.232 -57.3242 117.188 -47.1191 117.188 -35.2539 C 117.188 -23.3398 113.77 -12.6953 107.568 -4.54102 C 106.934 -3.66211 107.08 -2.58789 107.959 -2.00195 Z M 88.916 -14.9902 C 89.6973 -14.4043 90.7715 -14.5996 91.4062 -15.4297 C 95.2148 -20.3125 97.7539 -27.4414 97.7539 -35.2539 C 97.7539 -43.1152 95.2148 -50.1953 91.4062 -55.0781 C 90.7715 -55.957 89.7461 -56.1035 88.916 -55.5176 C 88.0371 -54.8828 87.8418 -53.7598 88.5742 -52.7832 C 91.7969 -48.3887 94.0918 -42.1875 94.0918 -35.2539 C 94.0918 -28.2227 91.6992 -21.9238 88.4277 -17.5293 C 87.793 -16.6992 88.0371 -15.6738 88.916 -14.9902 Z"/>
  </g>
  <g id="Ultralight-M" transform="matrix(1 0 0 1 484.174 1126)">
   <path d="M 126.318 10.6934 C 126.855 11.0352 127.588 10.9375 127.979 10.3516 C 136.865 -2.29492 142.334 -17.6758 142.334 -35.2539 C 142.334 -52.832 136.865 -68.2129 127.979 -80.8594 C 127.588 -81.4453 126.904 -81.6406 126.318 -81.2012 C 125.781 -80.8594 125.684 -80.0781 126.074 -79.4434 C 134.082 -66.7969 139.941 -52.3438 139.941 -35.2539 C 139.941 -18.1152 135.156 -2.7832 125.977 9.0332 C 125.537 9.57031 125.732 10.2539 126.318 10.6934 Z M 58.3008 6.68945 C 60.2539 6.68945 61.2305 5.22461 61.2305 3.36914 L 61.2305 -73.877 C 61.2305 -75.7324 60.2539 -77.1973 58.3008 -77.1973 C 56.9336 -77.1973 55.8105 -76.4648 54.9316 -75.6348 L 31.6895 -52.9785 C 31.1523 -52.4414 30.5176 -52.1973 29.6387 -52.1973 L 13.2812 -52.1973 C 9.22852 -52.1973 5.85938 -48.877 5.85938 -44.8242 L 5.85938 -25.0977 C 5.85938 -21.0449 9.22852 -17.6758 13.2812 -17.6758 L 29.6387 -17.6758 C 30.5176 -17.6758 31.1523 -17.4316 31.6895 -16.9434 L 54.9316 5.07812 C 55.8105 5.95703 56.9336 6.68945 58.3008 6.68945 Z M 107.275 -2.39258 C 107.861 -1.95312 108.496 -2.14844 108.936 -2.68555 C 115.674 -11.3281 119.287 -22.5586 119.287 -35.2539 C 119.287 -47.998 115.674 -59.1797 108.936 -67.8223 C 108.545 -68.3594 107.861 -68.5547 107.275 -68.1152 C 106.689 -67.7246 106.689 -67.041 107.08 -66.4062 C 112.695 -57.6172 116.895 -47.4609 116.895 -35.2539 C 116.895 -22.998 113.379 -12.3047 106.982 -4.00391 C 106.543 -3.4668 106.689 -2.7832 107.275 -2.39258 Z M 88.3301 -15.332 C 88.8672 -14.9414 89.5996 -15.0391 89.9902 -15.5762 C 93.75 -20.3613 96.3867 -27.3926 96.3867 -35.2539 C 96.3867 -43.1641 93.75 -50.1465 89.9902 -54.9316 C 89.5996 -55.4688 88.916 -55.6152 88.3301 -55.1758 C 87.793 -54.7363 87.6953 -54.0527 88.1348 -53.3691 C 91.4551 -48.8281 93.9941 -42.5293 93.9941 -35.2539 C 93.9941 -27.8809 91.4062 -21.4355 87.9883 -16.8945 C 87.5977 -16.4062 87.793 -15.7715 88.3301 -15.332 Z"/>
  </g>
  <g id="Black-S" transform="matrix(1 0 0 1 2858.45 696)">
   <path d="M 121.777 9.7168 C 125.293 11.6699 129.492 10.6445 131.494 7.22656 C 138.77 -5.22461 143.066 -19.6289 143.066 -35.1074 C 143.066 -50.5859 138.77 -64.9902 131.494 -77.4414 C 129.492 -80.8594 125.293 -81.8848 121.777 -79.9316 C 118.066 -77.8809 117.48 -73.3887 119.824 -69.2871 C 125.586 -59.2285 128.906 -47.5586 128.906 -35.1074 C 128.906 -22.6562 125.586 -10.9863 119.824 -0.927734 C 117.48 3.17383 118.066 7.66602 121.777 9.7168 Z M 55.5176 2.83203 C 60.2051 2.83203 63.8184 -0.78125 63.8184 -5.46875 L 63.8184 -64.9414 C 63.8184 -69.6289 60.2051 -73.2422 55.5176 -73.2422 C 52.7344 -73.2422 50.4395 -72.168 47.5098 -69.5312 L 31.3477 -55.0781 C 31.1035 -54.8828 31.0059 -54.834 30.8105 -54.834 L 21.0449 -54.834 C 13.1348 -54.834 8.74023 -50.2441 8.74023 -42.041 L 8.74023 -28.3691 C 8.74023 -20.166 13.1348 -15.5762 21.0449 -15.5762 L 30.8105 -15.5762 C 31.0059 -15.5762 31.1523 -15.5762 31.3477 -15.3809 L 47.5098 -0.878906 C 50.3418 1.66016 52.5391 2.83203 55.5176 2.83203 Z M 100.439 -2.00195 C 103.809 -0.146484 107.861 -0.976562 109.912 -4.24805 C 115.527 -13.1836 118.652 -23.7793 118.652 -35.1074 C 118.652 -46.4355 115.527 -57.0312 109.912 -65.9668 C 107.861 -69.2383 103.809 -70.0684 100.439 -68.2129 C 96.5332 -66.0645 96.1426 -61.4746 98.6328 -57.2266 C 102.393 -50.7812 104.492 -43.1641 104.492 -35.1074 C 104.492 -27.0508 102.393 -19.4336 98.6328 -12.9883 C 96.1426 -8.74023 96.5332 -4.15039 100.439 -2.00195 Z M 78.9062 -13.916 C 82.2266 -11.9629 86.1328 -12.7441 88.0371 -15.4297 C 91.9922 -20.9961 94.2383 -27.7832 94.2383 -35.1074 C 94.2383 -42.4316 91.9922 -49.2188 88.0371 -54.7852 C 86.1328 -57.4707 82.2266 -58.252 78.9062 -56.2988 C 75.4395 -54.248 74.5605 -50.1465 77.4902 -44.9707 C 79.1504 -42.041 80.0781 -38.6719 80.0781 -35.1074 C 80.0781 -31.543 79.1504 -28.1738 77.4902 -25.2441 C 74.5605 -20.0684 75.4395 -15.9668 78.9062 -13.916 Z"/>
  </g>
  <g id="Heavy-S" transform="matrix(1 0 0 1 2564.69 696)">
   <path d="M 117.236 8.05664 C 120.312 9.81445 124.023 8.88672 125.83 5.85938 C 133.057 -6.00586 137.305 -20.1172 137.305 -35.1562 C 137.305 -50.1953 133.057 -64.2578 125.83 -76.1719 C 124.023 -79.1992 120.312 -80.0781 117.236 -78.3203 C 114.014 -76.4648 113.477 -72.5586 115.576 -68.9941 C 121.436 -59.1797 124.805 -47.5098 124.805 -35.1562 C 124.805 -22.7539 121.436 -11.084 115.576 -1.31836 C 113.477 2.24609 114.014 6.20117 117.236 8.05664 Z M 54.4922 2.24609 C 58.7402 2.24609 62.0117 -0.976562 62.0117 -5.22461 L 62.0117 -65.0879 C 62.0117 -69.3359 58.7402 -72.6562 54.4922 -72.6562 C 51.8555 -72.6562 49.8047 -71.6309 47.0215 -69.0918 L 30.7129 -54.3945 C 30.4688 -54.1992 30.3223 -54.1016 30.127 -54.1016 L 20.0195 -54.1016 C 12.5977 -54.1016 8.54492 -49.9023 8.54492 -42.1387 L 8.54492 -28.2227 C 8.54492 -20.5078 12.5977 -16.2598 20.0195 -16.2598 L 30.127 -16.2598 C 30.3223 -16.2598 30.5176 -16.2598 30.7129 -16.0645 L 47.0215 -1.2207 C 49.6582 1.17188 51.709 2.24609 54.4922 2.24609 Z M 97.2656 -3.36914 C 100.244 -1.70898 103.809 -2.44141 105.664 -5.32227 C 111.182 -13.8672 114.258 -24.1699 114.258 -35.1562 C 114.258 -46.0938 111.182 -56.4453 105.664 -64.9414 C 103.809 -67.8711 100.244 -68.6035 97.2656 -66.8945 C 93.8965 -64.9902 93.5059 -60.9863 95.752 -57.2754 C 99.5605 -50.9766 101.758 -43.2617 101.758 -35.1562 C 101.758 -27.0508 99.5605 -19.3359 95.752 -12.9883 C 93.5059 -9.32617 93.8965 -5.27344 97.2656 -3.36914 Z M 77.1973 -14.9414 C 80.0781 -13.1836 83.5449 -13.8672 85.3027 -16.3086 C 89.0625 -21.5332 91.1621 -28.125 91.1621 -35.1562 C 91.1621 -42.1387 89.0625 -48.7305 85.3027 -53.9551 C 83.5449 -56.3965 80.0781 -57.0801 77.1973 -55.3711 C 74.0723 -53.4668 73.3398 -49.8047 75.9277 -45.4102 C 77.6855 -42.5293 78.7109 -38.8672 78.7109 -35.1562 C 78.7109 -31.3965 77.6855 -27.7832 75.9277 -24.8535 C 73.3398 -20.459 74.0723 -16.7969 77.1973 -14.9414 Z"/>
  </g>
  <g id="Bold-S" transform="matrix(1 0 0 1 2271.28 696)">
   <path d="M 112.158 6.15234 C 114.697 7.71484 117.871 6.98242 119.482 4.3457 C 126.709 -6.88477 130.811 -20.6055 130.811 -35.2051 C 130.811 -49.7559 126.611 -63.4766 119.482 -74.707 C 117.871 -77.3438 114.697 -78.0762 112.158 -76.5137 C 109.424 -74.9023 109.033 -71.582 110.84 -68.6523 C 116.748 -59.1797 120.264 -47.4609 120.264 -35.2051 C 120.264 -22.9004 116.797 -11.1816 110.84 -1.70898 C 109.033 1.2207 109.424 4.54102 112.158 6.15234 Z M 53.3203 1.5625 C 57.0801 1.5625 59.9609 -1.26953 59.9609 -4.98047 L 59.9609 -65.2832 C 59.9609 -69.043 57.0801 -72.0215 53.2715 -72.0215 C 50.8789 -72.0215 49.0723 -71.0449 46.4355 -68.6523 L 30.0293 -53.6133 C 29.7852 -53.418 29.5898 -53.3203 29.3457 -53.3203 L 18.8965 -53.3203 C 12.0117 -53.3203 8.34961 -49.5117 8.34961 -42.2852 L 8.34961 -28.125 C 8.34961 -20.8496 12.0117 -17.0898 18.8965 -17.0898 L 29.3457 -17.0898 C 29.5898 -17.0898 29.834 -17.041 30.0293 -16.7969 L 46.4355 -1.66016 C 48.877 0.585938 50.8301 1.5625 53.3203 1.5625 Z M 93.7012 -4.93164 C 96.2402 -3.41797 99.3164 -4.05273 100.928 -6.54297 C 106.25 -14.5996 109.277 -24.6094 109.277 -35.2051 C 109.277 -45.752 106.299 -55.8105 100.928 -63.8184 C 99.2676 -66.3086 96.2402 -66.9434 93.7012 -65.4297 C 90.918 -63.8184 90.5762 -60.4004 92.4805 -57.373 C 96.4355 -51.1719 98.6816 -43.3105 98.6816 -35.2051 C 98.6816 -27.0508 96.3867 -19.2383 92.4805 -12.9883 C 90.625 -9.96094 90.918 -6.54297 93.7012 -4.93164 Z M 75.2441 -16.0645 C 77.6855 -14.5508 80.6641 -15.1367 82.2754 -17.334 C 85.7422 -22.168 87.7441 -28.5156 87.7441 -35.2051 C 87.7441 -41.8457 85.7422 -48.1934 82.2754 -53.0273 C 80.6641 -55.2246 77.6855 -55.8105 75.2441 -54.2969 C 72.5586 -52.6367 72.0215 -49.4629 74.1699 -45.9473 C 76.0742 -43.0664 77.1484 -39.1113 77.1484 -35.2051 C 77.1484 -31.25 76.0254 -27.3438 74.1699 -24.4141 C 72.0215 -20.8496 72.5586 -17.7246 75.2441 -16.0645 Z"/>
  </g>
  <g id="Semibold-S" transform="matrix(1 0 0 1 1976.84 696)">
   <path d="M 108.643 4.88281 C 110.84 6.25 113.623 5.61523 115.137 3.32031 C 122.314 -7.4707 126.367 -20.9961 126.367 -35.2051 C 126.367 -49.4141 122.217 -62.9395 115.137 -73.7305 C 113.623 -76.0742 110.84 -76.709 108.643 -75.293 C 106.299 -73.8281 105.957 -70.9473 107.568 -68.4082 C 113.574 -59.1309 117.09 -47.4609 117.09 -35.2051 C 117.09 -22.9492 113.574 -11.2305 107.568 -2.00195 C 105.957 0.537109 106.299 3.41797 108.643 4.88281 Z M 52.5391 1.12305 C 55.957 1.12305 58.5449 -1.41602 58.5449 -4.83398 L 58.5449 -65.3809 C 58.5449 -68.7988 55.957 -71.5332 52.4902 -71.5332 C 50.1953 -71.5332 48.584 -70.6055 46.0449 -68.3105 L 29.541 -53.0762 C 29.2969 -52.8809 29.1016 -52.7832 28.8086 -52.7832 L 18.1152 -52.7832 C 11.6211 -52.7832 8.20312 -49.2676 8.20312 -42.3828 L 8.20312 -28.0273 C 8.20312 -21.1426 11.6211 -17.627 18.1152 -17.627 L 28.8086 -17.627 C 29.1016 -17.627 29.3457 -17.5293 29.541 -17.334 L 46.0449 -1.9043 C 48.3887 0.195312 50.1953 1.12305 52.5391 1.12305 Z M 91.2598 -6.00586 C 93.457 -4.63867 96.1914 -5.17578 97.6562 -7.42188 C 102.881 -15.0879 105.908 -24.9512 105.908 -35.2051 C 105.908 -45.459 102.979 -55.3711 97.6562 -62.9883 C 96.1426 -65.2344 93.457 -65.7715 91.2598 -64.4043 C 88.8672 -62.9883 88.5742 -60.0586 90.2344 -57.4219 C 94.2383 -51.2695 96.582 -43.3594 96.582 -35.2051 C 96.582 -27.0508 94.1895 -19.1406 90.2344 -12.9883 C 88.5742 -10.3516 88.8672 -7.42188 91.2598 -6.00586 Z M 73.9258 -16.8457 C 76.0254 -15.5273 78.6621 -15.9668 80.1758 -18.0176 C 83.4961 -22.5586 85.3516 -28.8086 85.3516 -35.2051 C 85.3516 -41.6016 83.4961 -47.8027 80.1758 -52.3926 C 78.6621 -54.4434 76.0254 -54.9316 73.9258 -53.5645 C 71.5332 -52.0508 71.0449 -49.2188 72.9492 -46.2891 C 74.9512 -43.4082 76.0742 -39.3066 76.0742 -35.2051 C 76.0742 -31.1035 74.9023 -27.0508 72.9492 -24.1211 C 71.0938 -21.1426 71.5332 -18.3594 73.9258 -16.8457 Z"/>
  </g>
  <g id="Medium-S" transform="matrix(1 0 0 1 1681.83 696)">
   <path d="M 105.957 3.90625 C 107.91 5.17578 110.449 4.58984 111.816 2.53906 C 118.994 -7.91016 122.949 -21.2402 122.949 -35.2051 C 122.949 -49.1699 118.848 -62.5 111.816 -72.998 C 110.449 -75.0977 107.91 -75.6348 105.957 -74.3652 C 103.906 -73.0469 103.613 -70.459 105.078 -68.2129 C 111.133 -59.1309 114.746 -47.4121 114.746 -35.2051 C 114.746 -23.0469 111.133 -11.2793 105.078 -2.24609 C 103.613 0 103.906 2.58789 105.957 3.90625 Z M 51.9531 0.78125 C 55.0781 0.78125 57.4707 -1.5625 57.4707 -4.6875 L 57.4707 -65.4785 C 57.4707 -68.6523 55.0781 -71.1914 51.8555 -71.1914 C 49.707 -71.1914 48.1934 -70.3125 45.752 -68.0664 L 29.1504 -52.6367 C 28.9551 -52.4414 28.7109 -52.3438 28.418 -52.3438 L 17.5293 -52.3438 C 11.2793 -52.3438 8.05664 -49.0723 8.05664 -42.4316 L 8.05664 -27.9297 C 8.05664 -21.3379 11.2793 -18.0176 17.5293 -18.0176 L 28.418 -18.0176 C 28.7109 -18.0176 28.9551 -17.9688 29.1504 -17.7246 L 45.752 -2.14844 C 47.9492 -0.0976562 49.7559 0.78125 51.9531 0.78125 Z M 89.3555 -6.78711 C 91.3574 -5.51758 93.8477 -6.05469 95.2148 -8.05664 C 100.342 -15.4785 103.32 -25.1953 103.32 -35.2051 C 103.32 -45.2637 100.439 -55.0293 95.2148 -62.4023 C 93.7988 -64.4043 91.3574 -64.8926 89.3555 -63.6719 C 87.3047 -62.3535 87.0117 -59.7656 88.5742 -57.4219 C 92.627 -51.416 94.9707 -43.4082 94.9707 -35.2051 C 94.9707 -27.0508 92.5293 -19.0918 88.5254 -12.9883 C 87.0605 -10.6934 87.3047 -8.10547 89.3555 -6.78711 Z M 72.9004 -17.4316 C 74.7559 -16.2109 77.1973 -16.6504 78.5645 -18.5547 C 81.7383 -22.9004 83.5938 -29.0039 83.5938 -35.2051 C 83.5938 -41.4551 81.7383 -47.5098 78.5645 -51.9043 C 77.1973 -53.8086 74.7559 -54.248 72.9004 -53.0273 C 70.752 -51.5625 70.3613 -49.0234 72.0215 -46.582 C 74.0723 -43.7012 75.2441 -39.4043 75.2441 -35.2051 C 75.2441 -31.0547 74.0234 -26.8066 72.0215 -23.877 C 70.4102 -21.3867 70.752 -18.8477 72.9004 -17.4316 Z"/>
  </g>
  <g id="Regular-S" transform="matrix(1 0 0 1 1387.37 696)">
   <path d="M 102.49 2.63672 C 104.102 3.75977 106.25 3.27148 107.52 1.51367 C 114.648 -8.49609 118.555 -21.6309 118.555 -35.2539 C 118.555 -48.877 114.502 -61.9629 107.52 -72.0215 C 106.25 -73.8281 104.102 -74.2676 102.49 -73.1445 C 100.781 -71.9727 100.586 -69.8242 101.855 -67.9688 C 107.959 -59.082 111.621 -47.3633 111.621 -35.2539 C 111.621 -23.1445 108.008 -11.3281 101.807 -2.53906 C 100.586 -0.683594 100.781 1.46484 102.49 2.63672 Z M 51.1719 0.341797 C 53.9551 0.341797 56.1035 -1.70898 56.1035 -4.54102 L 56.1035 -65.625 C 56.1035 -68.4082 53.9551 -70.752 51.0742 -70.752 C 49.0234 -70.752 47.7051 -69.873 45.3613 -67.7246 L 28.7109 -52.1484 C 28.4668 -51.9043 28.1738 -51.8066 27.8809 -51.8066 L 16.748 -51.8066 C 10.8887 -51.8066 7.91016 -48.8281 7.91016 -42.5293 L 7.91016 -27.832 C 7.91016 -21.582 10.8887 -18.5547 16.748 -18.5547 L 27.8809 -18.5547 C 28.1738 -18.5547 28.4668 -18.457 28.7109 -18.2617 L 45.3613 -2.39258 C 47.4609 -0.488281 49.1211 0.341797 51.1719 0.341797 Z M 86.9629 -7.86133 C 88.623 -6.73828 90.7715 -7.12891 91.9922 -8.88672 C 97.0215 -16.0156 99.9512 -25.4883 99.9512 -35.2539 C 99.9512 -45.0195 97.1191 -54.5898 91.9922 -61.6211 C 90.7227 -63.3789 88.623 -63.7695 86.9629 -62.6465 C 85.3027 -61.5234 85.0098 -59.375 86.3281 -57.4707 C 90.4785 -51.5137 92.9199 -43.457 92.9199 -35.2539 C 92.9199 -27.002 90.3809 -18.9941 86.3281 -12.9883 C 85.0586 -11.1328 85.3027 -8.98438 86.9629 -7.86133 Z M 71.582 -18.2129 C 73.0957 -17.1387 75.1953 -17.4805 76.4648 -19.2383 C 79.4922 -23.291 81.25 -29.2969 81.25 -35.2539 C 81.25 -41.2109 79.4922 -47.168 76.4648 -51.2695 C 75.1953 -53.0273 73.0957 -53.3691 71.582 -52.2949 C 69.7266 -50.9766 69.4336 -48.7793 70.8496 -46.9238 C 72.998 -44.043 74.1699 -39.5996 74.1699 -35.2539 C 74.1699 -30.9082 72.9492 -26.5137 70.8496 -23.584 C 69.4824 -21.6797 69.7266 -19.5312 71.582 -18.2129 Z"/>
  </g>
  <g id="Light-S" transform="matrix(1 0 0 1 1091.68 696)">
   <path d="M 101.416 2.05078 C 102.637 2.92969 104.297 2.53906 105.273 1.17188 C 112.305 -8.78906 116.357 -21.582 116.357 -35.2539 C 116.357 -48.9258 112.207 -61.6699 105.273 -71.6797 C 104.297 -73.0957 102.637 -73.4375 101.416 -72.5586 C 100.098 -71.6797 99.9023 -69.9707 100.879 -68.5547 C 107.031 -59.375 110.986 -47.8027 110.986 -35.2539 C 110.986 -22.7051 107.324 -10.8398 100.83 -1.9043 C 99.8535 -0.537109 100.098 1.12305 101.416 2.05078 Z M 49.4629 -0.488281 C 51.8555 -0.488281 53.5645 -2.29492 53.5645 -4.6875 L 53.5645 -65.5762 C 53.5645 -67.9688 51.8555 -69.9219 49.3652 -69.9219 C 47.6562 -69.9219 46.4355 -69.1406 44.6289 -67.4805 L 27.4902 -51.1719 C 27.1973 -50.9277 26.8555 -50.7812 26.416 -50.7812 L 14.7461 -50.7812 C 9.7168 -50.7812 6.88477 -47.9004 6.88477 -42.5781 L 6.88477 -27.6855 C 6.88477 -22.3633 9.7168 -19.4824 14.7461 -19.4824 L 26.416 -19.4824 C 26.8555 -19.4824 27.1973 -19.3359 27.4902 -19.0918 L 44.6289 -2.7832 C 46.2891 -1.26953 47.7051 -0.488281 49.4629 -0.488281 Z M 86.0352 -8.34961 C 87.3535 -7.4707 88.9648 -7.8125 89.8926 -9.13086 C 95.0195 -16.1621 97.9004 -25.4395 97.9004 -35.2539 C 97.9004 -45.0684 95.0684 -54.3945 89.8926 -61.377 C 88.916 -62.6953 87.3535 -63.0371 86.0352 -62.1582 C 84.7656 -61.2793 84.5703 -59.6191 85.5957 -58.1543 C 89.7949 -51.9043 92.4805 -43.8965 92.4805 -35.2539 C 92.4805 -26.6113 89.8926 -18.457 85.5469 -12.3047 C 84.5703 -10.8887 84.7656 -9.22852 86.0352 -8.34961 Z M 70.8496 -18.6523 C 72.0215 -17.8223 73.6328 -18.0664 74.6094 -19.4336 C 77.5879 -23.3887 79.4434 -29.248 79.4434 -35.2539 C 79.4434 -41.3086 77.5879 -47.0703 74.6094 -51.0742 C 73.6328 -52.4414 72.0215 -52.6855 70.8496 -51.8555 C 69.4336 -50.8301 69.1895 -49.1699 70.3125 -47.7051 C 72.5586 -44.6289 74.0234 -39.9902 74.0234 -35.2539 C 74.0234 -30.4688 72.5098 -25.8301 70.2637 -22.7539 C 69.2383 -21.2891 69.4336 -19.6777 70.8496 -18.6523 Z"/>
  </g>
  <g id="Thin-S" transform="matrix(1 0 0 1 796.339 696)">
   <path d="M 99.9512 1.26953 C 100.684 1.80664 101.709 1.61133 102.295 0.78125 C 109.277 -9.17969 113.477 -21.5332 113.477 -35.2539 C 113.477 -48.9746 109.229 -61.3281 102.295 -71.2891 C 101.709 -72.1191 100.732 -72.3145 99.9512 -71.7773 C 99.1699 -71.2402 99.0234 -70.2148 99.6094 -69.3359 C 105.859 -59.7168 110.205 -48.291 110.205 -35.2539 C 110.205 -22.168 106.445 -10.2051 99.5605 -1.12305 C 98.9746 -0.292969 99.1211 0.732422 99.9512 1.26953 Z M 47.168 -1.61133 C 49.0723 -1.61133 50.1953 -3.02734 50.1953 -4.83398 L 50.1953 -65.5762 C 50.1953 -67.3828 49.0723 -68.8477 47.168 -68.8477 C 45.8496 -68.8477 44.8242 -68.2129 43.7012 -67.1387 L 25.9277 -49.9512 C 25.5371 -49.6094 25.0977 -49.4629 24.5117 -49.4629 L 12.1582 -49.4629 C 8.25195 -49.4629 5.51758 -46.7285 5.51758 -42.6758 L 5.51758 -27.4414 C 5.51758 -23.3887 8.25195 -20.6543 12.1582 -20.6543 L 24.5117 -20.6543 C 25.0977 -20.6543 25.5371 -20.5078 25.9277 -20.166 L 43.7012 -3.27148 C 44.7754 -2.29492 45.8496 -1.61133 47.168 -1.61133 Z M 84.8633 -9.0332 C 85.6445 -8.49609 86.6211 -8.69141 87.1582 -9.47266 C 92.3828 -16.3574 95.2637 -25.3418 95.2637 -35.2539 C 95.2637 -45.166 92.4316 -54.1504 87.1582 -61.0352 C 86.5723 -61.8164 85.6445 -62.0117 84.8633 -61.4746 C 84.0332 -60.9375 83.9844 -59.9609 84.5703 -59.0332 C 88.916 -52.3926 91.9434 -44.4336 91.9434 -35.2539 C 91.9434 -26.0254 89.2578 -17.7246 84.5215 -11.377 C 83.9355 -10.5469 84.0332 -9.57031 84.8633 -9.0332 Z M 69.873 -19.2383 C 70.6055 -18.7012 71.582 -18.8965 72.168 -19.6777 C 75.0977 -23.4863 77.0996 -29.1504 77.0996 -35.2539 C 77.0996 -41.4062 75.0977 -46.9727 72.168 -50.8301 C 71.582 -51.6113 70.6055 -51.8066 69.873 -51.2695 C 69.043 -50.6836 68.8965 -49.6582 69.5801 -48.7305 C 72.0215 -45.3613 73.7793 -40.5762 73.7793 -35.2539 C 73.7793 -29.8828 71.9727 -25 69.4336 -21.6309 C 68.8965 -20.8008 69.043 -19.8242 69.873 -19.2383 Z"/>
  </g>
  <g id="Ultralight-S" transform="matrix(1 0 0 1 500.312 696)">
   <path d="M 99.2188 0.878906 C 99.707 1.2207 100.342 1.07422 100.732 0.537109 C 107.666 -9.375 111.963 -21.4844 111.963 -35.2539 C 111.963 -49.0234 107.666 -61.1328 100.732 -71.0449 C 100.342 -71.582 99.7559 -71.7773 99.2188 -71.3867 C 98.6816 -71.0449 98.584 -70.3125 98.9746 -69.7266 C 105.225 -59.9121 109.766 -48.584 109.766 -35.2539 C 109.766 -21.875 106.006 -9.91211 98.877 -0.683594 C 98.4863 -0.195312 98.6328 0.488281 99.2188 0.878906 Z M 45.9961 -2.19727 C 47.6562 -2.19727 48.4863 -3.41797 48.4863 -4.98047 L 48.4863 -65.5273 C 48.4863 -67.041 47.6562 -68.3105 45.9961 -68.3105 C 44.873 -68.3105 43.9941 -67.6758 43.1641 -66.9434 L 25.0977 -49.3164 C 24.6582 -48.9258 24.1699 -48.7305 23.5352 -48.7305 L 10.791 -48.7305 C 7.4707 -48.7305 4.78516 -46.0938 4.78516 -42.7246 L 4.78516 -27.3438 C 4.78516 -23.9258 7.4707 -21.2891 10.791 -21.2891 L 23.5352 -21.2891 C 24.1699 -21.2891 24.6582 -21.0938 25.0977 -20.7031 L 43.1641 -3.56445 C 43.9941 -2.83203 44.873 -2.19727 45.9961 -2.19727 Z M 84.2285 -9.375 C 84.7656 -9.0332 85.4004 -9.17969 85.791 -9.66797 C 91.0156 -16.4551 93.8477 -25.293 93.8477 -35.2539 C 93.8477 -45.2148 91.0156 -54.0527 85.791 -60.8398 C 85.4004 -61.3281 84.7656 -61.4746 84.2285 -61.1328 C 83.6914 -60.7422 83.6426 -60.1074 84.0332 -59.5215 C 88.4277 -52.6855 91.6504 -44.7266 91.6504 -35.2539 C 91.6504 -25.7324 88.9648 -17.3828 83.9844 -10.8887 C 83.5938 -10.4004 83.6914 -9.76562 84.2285 -9.375 Z M 69.3359 -19.5801 C 69.8242 -19.1895 70.5078 -19.2871 70.8984 -19.7754 C 73.8281 -23.584 75.8789 -29.1016 75.8789 -35.2539 C 75.8789 -41.4551 73.8281 -46.9238 70.8984 -50.7324 C 70.5078 -51.2207 69.873 -51.3184 69.3359 -50.9277 C 68.8477 -50.5371 68.75 -49.9023 69.1895 -49.2676 C 71.7285 -45.752 73.6816 -40.8691 73.6816 -35.2539 C 73.6816 -29.541 71.6797 -24.5605 69.043 -21.0449 C 68.7012 -20.5566 68.8477 -19.9707 69.3359 -19.5801 Z"/>
  </g>
 </g>
</svg>
