<?xml version="1.0" encoding="UTF-8"?>
<!--Generator: Apple Native CoreSVG 123-->
<!DOCTYPE svg
PUBLIC "-//W3C//DTD SVG 1.1//EN"
       "http://www.w3.org/Graphics/SVG/1.1/DTD/svg11.dtd">
<svg version="1.1" xmlns="http://www.w3.org/2000/svg" xmlns:xlink="http://www.w3.org/1999/xlink" width="3300" height="2200">
 <!--glyph: "uni1002A1.medium", point size: 100.000000, font version: "Version 15.0d7e11", template writer version: "5"-->
 <g id="Notes">
  <rect height="2200" id="artboard" style="fill:white;opacity:1" width="3300" x="0" y="0"/>
  <line id="" style="fill:none;stroke:black;opacity:1;stroke-width:0.5;" x1="263" x2="3036" y1="292" y2="292"/>
  <text style="stroke:none;fill:black;font-family:-apple-system,&quot;SF Pro Display&quot;,&quot;SF Pro Text&quot;,Helvetica,sans-serif;font-weight:bold;" transform="matrix(1 0 0 1 263 322)">Weight/Scale Variations</text>
  <text style="stroke:none;fill:black;font-family:-apple-system,&quot;SF Pro Display&quot;,&quot;SF Pro Text&quot;,Helvetica,sans-serif;text-anchor:middle;" transform="matrix(1 0 0 1 559.711 322)">Ultralight</text>
  <text style="stroke:none;fill:black;font-family:-apple-system,&quot;SF Pro Display&quot;,&quot;SF Pro Text&quot;,Helvetica,sans-serif;text-anchor:middle;" transform="matrix(1 0 0 1 856.422 322)">Thin</text>
  <text style="stroke:none;fill:black;font-family:-apple-system,&quot;SF Pro Display&quot;,&quot;SF Pro Text&quot;,Helvetica,sans-serif;text-anchor:middle;" transform="matrix(1 0 0 1 1153.13 322)">Light</text>
  <text style="stroke:none;fill:black;font-family:-apple-system,&quot;SF Pro Display&quot;,&quot;SF Pro Text&quot;,Helvetica,sans-serif;text-anchor:middle;" transform="matrix(1 0 0 1 1449.84 322)">Regular</text>
  <text style="stroke:none;fill:black;font-family:-apple-system,&quot;SF Pro Display&quot;,&quot;SF Pro Text&quot;,Helvetica,sans-serif;text-anchor:middle;" transform="matrix(1 0 0 1 1746.56 322)">Medium</text>
  <text style="stroke:none;fill:black;font-family:-apple-system,&quot;SF Pro Display&quot;,&quot;SF Pro Text&quot;,Helvetica,sans-serif;text-anchor:middle;" transform="matrix(1 0 0 1 2043.27 322)">Semibold</text>
  <text style="stroke:none;fill:black;font-family:-apple-system,&quot;SF Pro Display&quot;,&quot;SF Pro Text&quot;,Helvetica,sans-serif;text-anchor:middle;" transform="matrix(1 0 0 1 2339.98 322)">Bold</text>
  <text style="stroke:none;fill:black;font-family:-apple-system,&quot;SF Pro Display&quot;,&quot;SF Pro Text&quot;,Helvetica,sans-serif;text-anchor:middle;" transform="matrix(1 0 0 1 2636.69 322)">Heavy</text>
  <text style="stroke:none;fill:black;font-family:-apple-system,&quot;SF Pro Display&quot;,&quot;SF Pro Text&quot;,Helvetica,sans-serif;text-anchor:middle;" transform="matrix(1 0 0 1 2933.4 322)">Black</text>
  <line id="" style="fill:none;stroke:black;opacity:1;stroke-width:0.5;" x1="263" x2="3036" y1="1903" y2="1903"/>
  <g id="" transform="matrix(1 0 0 1 263 1933)">
   <path d="M 9.24805 0.830078 C 13.5547 0.830078 17.1387 -2.74414 17.1387 -7.05078 C 17.1387 -11.3574 13.5449 -14.9316 9.23828 -14.9316 C 4.94141 -14.9316 1.36719 -11.3574 1.36719 -7.05078 C 1.36719 -2.74414 4.95117 0.830078 9.24805 0.830078 Z M 9.24805 -0.654297 C 5.70312 -0.654297 2.87109 -3.49609 2.87109 -7.05078 C 2.87109 -10.6055 5.69336 -13.4473 9.23828 -13.4473 C 12.793 -13.4473 15.6348 -10.6055 15.6445 -7.05078 C 15.6543 -3.49609 12.8027 -0.654297 9.24805 -0.654297 Z M 9.22852 -3.42773 C 9.69727 -3.42773 9.9707 -3.74023 9.9707 -4.25781 L 9.9707 -6.31836 L 12.1973 -6.31836 C 12.6953 -6.31836 13.0371 -6.57227 13.0371 -7.04102 C 13.0371 -7.51953 12.7148 -7.7832 12.1973 -7.7832 L 9.9707 -7.7832 L 9.9707 -10.0098 C 9.9707 -10.5273 9.69727 -10.8496 9.22852 -10.8496 C 8.75977 -10.8496 8.50586 -10.5078 8.50586 -10.0098 L 8.50586 -7.7832 L 6.29883 -7.7832 C 5.78125 -7.7832 5.44922 -7.51953 5.44922 -7.04102 C 5.44922 -6.57227 5.80078 -6.31836 6.29883 -6.31836 L 8.50586 -6.31836 L 8.50586 -4.25781 C 8.50586 -3.75977 8.75977 -3.42773 9.22852 -3.42773 Z"/>
  </g>
  <g id="" transform="matrix(1 0 0 1 281.506 1933)">
   <path d="M 11.709 2.91016 C 17.1582 2.91016 21.6699 -1.60156 21.6699 -7.05078 C 21.6699 -12.4902 17.1484 -17.0117 11.6992 -17.0117 C 6.25977 -17.0117 1.74805 -12.4902 1.74805 -7.05078 C 1.74805 -1.60156 6.26953 2.91016 11.709 2.91016 Z M 11.709 1.25 C 7.09961 1.25 3.41797 -2.44141 3.41797 -7.05078 C 3.41797 -11.6504 7.08984 -15.3516 11.6992 -15.3516 C 16.3086 -15.3516 20 -11.6504 20.0098 -7.05078 C 20.0195 -2.44141 16.3184 1.25 11.709 1.25 Z M 11.6895 -2.41211 C 12.207 -2.41211 12.5195 -2.77344 12.5195 -3.33984 L 12.5195 -6.23047 L 15.5762 -6.23047 C 16.123 -6.23047 16.5039 -6.51367 16.5039 -7.03125 C 16.5039 -7.55859 16.1426 -7.86133 15.5762 -7.86133 L 12.5195 -7.86133 L 12.5195 -10.9277 C 12.5195 -11.5039 12.207 -11.8555 11.6895 -11.8555 C 11.1719 -11.8555 10.8789 -11.4844 10.8789 -10.9277 L 10.8789 -7.86133 L 7.83203 -7.86133 C 7.26562 -7.86133 6.89453 -7.55859 6.89453 -7.03125 C 6.89453 -6.51367 7.28516 -6.23047 7.83203 -6.23047 L 10.8789 -6.23047 L 10.8789 -3.33984 C 10.8789 -2.79297 11.1719 -2.41211 11.6895 -2.41211 Z"/>
  </g>
  <g id="" transform="matrix(1 0 0 1 304.924 1933)">
   <path d="M 14.9707 5.67383 C 21.9336 5.67383 27.6953 -0.078125 27.6953 -7.04102 C 27.6953 -14.0039 21.9238 -19.7559 14.9609 -19.7559 C 8.00781 -19.7559 2.25586 -14.0039 2.25586 -7.04102 C 2.25586 -0.078125 8.01758 5.67383 14.9707 5.67383 Z M 14.9707 3.85742 C 8.93555 3.85742 4.08203 -1.00586 4.08203 -7.04102 C 4.08203 -13.0762 8.92578 -17.9395 14.9609 -17.9395 C 21.0059 -17.9395 25.8594 -13.0762 25.8691 -7.04102 C 25.8789 -1.00586 21.0156 3.85742 14.9707 3.85742 Z M 14.9512 -1.06445 C 15.5176 -1.06445 15.8691 -1.45508 15.8691 -2.06055 L 15.8691 -6.13281 L 20.1074 -6.13281 C 20.6934 -6.13281 21.1133 -6.46484 21.1133 -7.02148 C 21.1133 -7.59766 20.7227 -7.93945 20.1074 -7.93945 L 15.8691 -7.93945 L 15.8691 -12.1875 C 15.8691 -12.8027 15.5176 -13.1934 14.9512 -13.1934 C 14.3848 -13.1934 14.0625 -12.7832 14.0625 -12.1875 L 14.0625 -7.93945 L 9.83398 -7.93945 C 9.21875 -7.93945 8.80859 -7.59766 8.80859 -7.02148 C 8.80859 -6.46484 9.23828 -6.13281 9.83398 -6.13281 L 14.0625 -6.13281 L 14.0625 -2.06055 C 14.0625 -1.47461 14.3848 -1.06445 14.9512 -1.06445 Z"/>
  </g>
  <text style="stroke:none;fill:black;font-family:-apple-system,&quot;SF Pro Display&quot;,&quot;SF Pro Text&quot;,Helvetica,sans-serif;font-weight:bold;" transform="matrix(1 0 0 1 263 1953)">Design Variations</text>
  <text style="stroke:none;fill:black;font-family:-apple-system,&quot;SF Pro Display&quot;,&quot;SF Pro Text&quot;,Helvetica,sans-serif;" transform="matrix(1 0 0 1 263 1971)">Symbols are supported in up to nine weights and three scales.</text>
  <text style="stroke:none;fill:black;font-family:-apple-system,&quot;SF Pro Display&quot;,&quot;SF Pro Text&quot;,Helvetica,sans-serif;" transform="matrix(1 0 0 1 263 1989)">For optimal layout with text and other symbols, vertically align</text>
  <text style="stroke:none;fill:black;font-family:-apple-system,&quot;SF Pro Display&quot;,&quot;SF Pro Text&quot;,Helvetica,sans-serif;" transform="matrix(1 0 0 1 263 2007)">symbols with the adjacent text.</text>
  <rect height="14" id="" style="fill:#00AEEF;stroke:none;opacity:0.4;" width="3" x="776" y="1919"/>
  <g id="" transform="matrix(1 0 0 1 779 1933)">
   <path d="M 10.5273 0 L 12.373 0 L 7.17773 -14.0918 L 5.43945 -14.0918 L 0.244141 0 L 2.08984 0 L 3.50586 -4.0332 L 9.11133 -4.0332 Z M 6.2793 -11.9531 L 6.33789 -11.9531 L 8.59375 -5.52734 L 4.02344 -5.52734 Z"/>
  </g>
  <rect height="14" id="" style="fill:#00AEEF;stroke:none;opacity:0.4;" width="3" x="791.617" y="1919"/>
  <text style="stroke:none;fill:black;font-family:-apple-system,&quot;SF Pro Display&quot;,&quot;SF Pro Text&quot;,Helvetica,sans-serif;font-weight:bold;" transform="matrix(1 0 0 1 776 1953)">Margins</text>
  <text style="stroke:none;fill:black;font-family:-apple-system,&quot;SF Pro Display&quot;,&quot;SF Pro Text&quot;,Helvetica,sans-serif;" transform="matrix(1 0 0 1 776 1971)">Leading and trailing margins on the left and right side of each symbol</text>
  <text style="stroke:none;fill:black;font-family:-apple-system,&quot;SF Pro Display&quot;,&quot;SF Pro Text&quot;,Helvetica,sans-serif;" transform="matrix(1 0 0 1 776 1989)">can be adjusted by modifying the width of the blue rectangles.</text>
  <text style="stroke:none;fill:black;font-family:-apple-system,&quot;SF Pro Display&quot;,&quot;SF Pro Text&quot;,Helvetica,sans-serif;" transform="matrix(1 0 0 1 776 2007)">Modifications are automatically applied proportionally to all</text>
  <text style="stroke:none;fill:black;font-family:-apple-system,&quot;SF Pro Display&quot;,&quot;SF Pro Text&quot;,Helvetica,sans-serif;" transform="matrix(1 0 0 1 776 2025)">scales and weights.</text>
  <g id="" transform="matrix(1 0 0 1 1289 1933)">
   <path d="M 2.83203 3.11523 L 4.375 4.6582 C 5.22461 5.48828 6.19141 5.41992 7.06055 4.46289 L 17.2754 -6.66016 C 17.7051 -6.36719 18.0957 -6.37695 18.5645 -6.47461 L 19.6094 -6.68945 L 20.3027 -5.99609 L 20.2539 -5.47852 C 20.1855 -4.95117 20.3516 -4.53125 20.8496 -4.0332 L 21.6602 -3.22266 C 22.168 -2.71484 22.8223 -2.68555 23.3008 -3.16406 L 26.5527 -6.41602 C 27.0312 -6.89453 27.0117 -7.54883 26.5039 -8.05664 L 25.6836 -8.87695 C 25.1855 -9.375 24.7754 -9.55078 24.2383 -9.47266 L 23.7109 -9.41406 L 23.0566 -10.0781 L 23.3398 -11.2207 C 23.4863 -11.7871 23.3398 -12.2559 22.7148 -12.8613 L 20.3027 -15.2539 C 16.7578 -18.7793 12.2266 -18.6719 9.11133 -15.5371 C 8.69141 -15.1074 8.64258 -14.5215 8.91602 -14.0918 C 9.15039 -13.7207 9.62891 -13.4961 10.2734 -13.6621 C 11.7871 -14.043 13.3008 -13.9258 14.7852 -12.9199 L 14.1602 -11.3379 C 13.9258 -10.752 13.9453 -10.2734 14.1797 -9.83398 L 3.01758 0.439453 C 2.08008 1.30859 1.97266 2.25586 2.83203 3.11523 Z M 10.6738 -15.1465 C 13.3398 -17.1387 16.6504 -16.8262 19.0527 -14.4141 L 21.6797 -11.8066 C 21.9141 -11.5723 21.9434 -11.3867 21.8848 -11.0938 L 21.5039 -9.53125 L 23.0762 -7.95898 L 24.043 -8.04688 C 24.3262 -8.07617 24.4141 -8.05664 24.6387 -7.83203 L 25.2637 -7.20703 L 22.5098 -4.46289 L 21.8848 -5.07812 C 21.6602 -5.30273 21.6406 -5.40039 21.6699 -5.68359 L 21.7578 -6.64062 L 20.1953 -8.20312 L 18.5742 -7.89062 C 18.291 -7.83203 18.1445 -7.83203 17.9102 -8.07617 L 15.7324 -10.2539 C 15.5078 -10.4883 15.4785 -10.625 15.6055 -10.9473 L 16.5527 -13.2227 C 14.9512 -14.7559 12.8418 -15.6055 10.8008 -14.9512 C 10.7129 -14.9219 10.6445 -14.9414 10.6152 -14.9805 C 10.5859 -15.0293 10.5859 -15.0781 10.6738 -15.1465 Z M 4.10156 2.41211 C 3.61328 1.91406 3.78906 1.61133 4.12109 1.30859 L 15.0781 -8.80859 L 16.3086 -7.57812 L 6.15234 3.34961 C 5.84961 3.68164 5.46875 3.7793 5.06836 3.37891 Z"/>
  </g>
  <text style="stroke:none;fill:black;font-family:-apple-system,&quot;SF Pro Display&quot;,&quot;SF Pro Text&quot;,Helvetica,sans-serif;font-weight:bold;" transform="matrix(1 0 0 1 1289 1953)">Exporting</text>
  <text style="stroke:none;fill:black;font-family:-apple-system,&quot;SF Pro Display&quot;,&quot;SF Pro Text&quot;,Helvetica,sans-serif;" transform="matrix(1 0 0 1 1289 1971)">Symbols should be outlined when exporting to ensure the</text>
  <text style="stroke:none;fill:black;font-family:-apple-system,&quot;SF Pro Display&quot;,&quot;SF Pro Text&quot;,Helvetica,sans-serif;" transform="matrix(1 0 0 1 1289 1989)">design is preserved when submitting to Xcode.</text>
  <text id="template-version" style="stroke:none;fill:black;font-family:-apple-system,&quot;SF Pro Display&quot;,&quot;SF Pro Text&quot;,Helvetica,sans-serif;text-anchor:end;" transform="matrix(1 0 0 1 3036 1933)">Template v.1.0</text>
  <text style="stroke:none;fill:black;font-family:-apple-system,&quot;SF Pro Display&quot;,&quot;SF Pro Text&quot;,Helvetica,sans-serif;text-anchor:end;" transform="matrix(1 0 0 1 3036 1951)">Generated from speaker.fill</text>
  <text style="stroke:none;fill:black;font-family:-apple-system,&quot;SF Pro Display&quot;,&quot;SF Pro Text&quot;,Helvetica,sans-serif;text-anchor:end;" transform="matrix(1 0 0 1 3036 1969)">Typeset at 100 points</text>
  <text style="stroke:none;fill:black;font-family:-apple-system,&quot;SF Pro Display&quot;,&quot;SF Pro Text&quot;,Helvetica,sans-serif;" transform="matrix(1 0 0 1 263 726)">Small</text>
  <text style="stroke:none;fill:black;font-family:-apple-system,&quot;SF Pro Display&quot;,&quot;SF Pro Text&quot;,Helvetica,sans-serif;" transform="matrix(1 0 0 1 263 1156)">Medium</text>
  <text style="stroke:none;fill:black;font-family:-apple-system,&quot;SF Pro Display&quot;,&quot;SF Pro Text&quot;,Helvetica,sans-serif;" transform="matrix(1 0 0 1 263 1586)">Large</text>
 </g>
 <g id="Guides">
  <g id="H-reference" style="fill:#27AAE1;stroke:none;" transform="matrix(1 0 0 1 339 696)">
   <path d="M 54.9316 0 L 57.666 0 L 30.5664 -70.459 L 28.0762 -70.459 L 0.976562 0 L 3.66211 0 L 12.9395 -24.4629 L 45.7031 -24.4629 Z M 29.1992 -67.0898 L 29.4434 -67.0898 L 44.8242 -26.709 L 13.8184 -26.709 Z"/>
  </g>
  <line id="Baseline-S" style="fill:none;stroke:#27AAE1;opacity:1;stroke-width:0.577;" x1="263" x2="3036" y1="696" y2="696"/>
  <line id="Capline-S" style="fill:none;stroke:#27AAE1;opacity:1;stroke-width:0.577;" x1="263" x2="3036" y1="625.541" y2="625.541"/>
  <g id="H-reference" style="fill:#27AAE1;stroke:none;" transform="matrix(1 0 0 1 339 1126)">
   <path d="M 54.9316 0 L 57.666 0 L 30.5664 -70.459 L 28.0762 -70.459 L 0.976562 0 L 3.66211 0 L 12.9395 -24.4629 L 45.7031 -24.4629 Z M 29.1992 -67.0898 L 29.4434 -67.0898 L 44.8242 -26.709 L 13.8184 -26.709 Z"/>
  </g>
  <line id="Baseline-M" style="fill:none;stroke:#27AAE1;opacity:1;stroke-width:0.577;" x1="263" x2="3036" y1="1126" y2="1126"/>
  <line id="Capline-M" style="fill:none;stroke:#27AAE1;opacity:1;stroke-width:0.577;" x1="263" x2="3036" y1="1055.54" y2="1055.54"/>
  <g id="H-reference" style="fill:#27AAE1;stroke:none;" transform="matrix(1 0 0 1 339 1556)">
   <path d="M 54.9316 0 L 57.666 0 L 30.5664 -70.459 L 28.0762 -70.459 L 0.976562 0 L 3.66211 0 L 12.9395 -24.4629 L 45.7031 -24.4629 Z M 29.1992 -67.0898 L 29.4434 -67.0898 L 44.8242 -26.709 L 13.8184 -26.709 Z"/>
  </g>
  <line id="Baseline-L" style="fill:none;stroke:#27AAE1;opacity:1;stroke-width:0.577;" x1="263" x2="3036" y1="1556" y2="1556"/>
  <line id="Capline-L" style="fill:none;stroke:#27AAE1;opacity:1;stroke-width:0.577;" x1="263" x2="3036" y1="1485.54" y2="1485.54"/>
  <rect height="119.336" id="left-margin" style="fill:#00AEEF;stroke:none;opacity:0.4;" width="18.9941" x="1395.45" y="1030.79"/>
  <rect height="119.336" id="right-margin" style="fill:#00AEEF;stroke:none;opacity:0.4;" width="29.3457" x="1474.89" y="1030.79"/>
 </g>
 <g id="Symbols">
  <g id="Black-L" transform="matrix(1 0 0 1 2856.06 1556)">
   <path d="M 102.002 26.416 C 108.887 26.416 114.209 21.1426 114.209 14.209 L 114.209 -84.4727 C 114.209 -91.3574 108.887 -96.7773 101.953 -96.7773 C 97.6562 -96.7773 94.3359 -95.1172 89.7461 -90.918 L 62.8906 -66.6504 C 62.5488 -66.3574 62.3047 -66.2598 61.9141 -66.2598 L 45.2637 -66.2598 C 33.1055 -66.2598 26.5137 -59.375 26.5137 -46.6797 L 26.5137 -23.7305 C 26.5137 -10.9863 33.1055 -4.15039 45.2637 -4.15039 L 61.9141 -4.15039 C 62.3047 -4.15039 62.5977 -4.10156 62.8906 -3.75977 L 89.7461 20.7031 C 94.0918 24.6094 97.5098 26.416 102.002 26.416 Z"/>
  </g>
  <g id="Heavy-L" transform="matrix(1 0 0 1 2561.47 1556)">
   <path d="M 100 25.293 C 106.201 25.293 110.889 20.6055 110.889 14.4531 L 110.889 -84.668 C 110.889 -90.8203 106.201 -95.7031 99.9512 -95.7031 C 95.9961 -95.7031 92.9688 -94.1406 88.8184 -90.2832 L 61.6211 -65.4297 C 61.2305 -65.0391 60.8887 -64.9414 60.4492 -64.9414 L 43.1641 -64.9414 C 31.9336 -64.9414 25.7812 -58.5938 25.7812 -46.8262 L 25.7812 -23.4863 C 25.7812 -11.7676 31.9336 -5.37109 43.1641 -5.37109 L 60.4492 -5.37109 C 60.8887 -5.37109 61.2793 -5.32227 61.6211 -4.93164 L 88.8184 20.0684 C 92.7734 23.6816 95.8984 25.293 100 25.293 Z"/>
  </g>
  <g id="Bold-L" transform="matrix(1 0 0 1 2267.18 1556)">
   <path d="M 97.7539 24.1211 C 103.174 24.1211 107.178 20.0195 107.178 14.6484 L 107.178 -84.8633 C 107.178 -90.2344 103.174 -94.5312 97.7051 -94.5312 C 94.1406 -94.5312 91.5039 -93.0176 87.7441 -89.5996 L 60.2051 -64.0137 C 59.7656 -63.623 59.3262 -63.4766 58.7891 -63.4766 L 40.8203 -63.4766 C 30.6641 -63.4766 25 -57.666 25 -47.0215 L 25 -23.2422 C 25 -12.5977 30.6641 -6.78711 40.8203 -6.78711 L 58.7891 -6.78711 C 59.3262 -6.78711 59.7656 -6.64062 60.2051 -6.29883 L 87.7441 19.3848 C 91.2598 22.6074 94.0918 24.1211 97.7539 24.1211 Z"/>
  </g>
  <g id="Semibold-L" transform="matrix(1 0 0 1 1972.1 1556)">
   <path d="M 96.1914 23.2422 C 101.074 23.2422 104.639 19.6289 104.639 14.7949 L 104.639 -85.0098 C 104.639 -89.7949 101.074 -93.7012 96.1426 -93.7012 C 92.8711 -93.7012 90.4785 -92.2852 87.0605 -89.1113 L 59.1797 -63.0371 C 58.7402 -62.6465 58.252 -62.4512 57.6172 -62.4512 L 39.1602 -62.4512 C 29.7852 -62.4512 24.4629 -57.0312 24.4629 -47.168 L 24.4629 -23.0469 C 24.4629 -13.1836 29.7852 -7.76367 39.1602 -7.76367 L 57.6172 -7.76367 C 58.252 -7.76367 58.7402 -7.61719 59.1797 -7.17773 L 87.0605 18.9453 C 90.2344 21.875 92.8711 23.2422 96.1914 23.2422 Z"/>
  </g>
  <g id="Medium-L" transform="matrix(1 0 0 1 1676.63 1556)">
   <path d="M 95.0684 22.6074 C 99.5117 22.6074 102.686 19.3359 102.686 14.9414 L 102.686 -85.1074 C 102.686 -89.502 99.5117 -93.0664 94.9707 -93.0664 C 91.8945 -93.0664 89.6973 -91.6992 86.4746 -88.7695 L 58.4473 -62.3047 C 57.959 -61.8652 57.4219 -61.6699 56.7871 -61.6699 L 37.9395 -61.6699 C 29.1016 -61.6699 24.0723 -56.543 24.0723 -47.2656 L 24.0723 -22.9492 C 24.0723 -13.623 29.1016 -8.49609 37.9395 -8.49609 L 56.7871 -8.49609 C 57.4219 -8.49609 58.0078 -8.30078 58.4473 -7.86133 L 86.4746 18.6035 C 89.4531 21.3379 91.9434 22.6074 95.0684 22.6074 Z"/>
  </g>
  <g id="Regular-L" transform="matrix(1 0 0 1 1381.56 1556)">
   <path d="M 93.5059 21.7773 C 97.4121 21.7773 100.146 18.9453 100.146 15.0879 L 100.146 -85.2051 C 100.146 -89.0625 97.4121 -92.2363 93.4082 -92.2363 C 90.625 -92.2363 88.6719 -90.9668 85.791 -88.2812 L 57.4707 -61.3281 C 56.9824 -60.8887 56.3477 -60.6934 55.6152 -60.6934 L 36.3281 -60.6934 C 28.2227 -60.6934 23.5352 -55.957 23.5352 -47.3633 L 23.5352 -22.7539 C 23.5352 -14.209 28.2227 -9.42383 36.3281 -9.42383 L 55.6152 -9.42383 C 56.3477 -9.42383 56.9824 -9.22852 57.4707 -8.78906 L 85.791 18.1152 C 88.4277 20.6055 90.7227 21.7773 93.5059 21.7773 Z"/>
  </g>
  <g id="Light-L" transform="matrix(1 0 0 1 1087.44 1556)">
   <path d="M 91.3574 20.7031 C 94.7754 20.7031 96.9238 18.2129 96.9238 14.8926 L 96.9238 -85.2051 C 96.9238 -88.5254 94.7754 -91.2109 91.3086 -91.2109 C 88.8672 -91.2109 87.1094 -90.0391 84.8633 -87.9395 L 55.957 -60.1562 C 55.3711 -59.668 54.6875 -59.375 53.8086 -59.375 L 33.8379 -59.375 C 26.7578 -59.375 22.2168 -54.7852 22.2168 -47.4609 L 22.2168 -22.5098 C 22.2168 -15.1855 26.7578 -10.5957 33.8379 -10.5957 L 53.8086 -10.5957 C 54.6875 -10.5957 55.3711 -10.3516 55.957 -9.81445 L 84.8633 17.627 C 86.9629 19.6289 88.916 20.7031 91.3574 20.7031 Z"/>
  </g>
  <g id="Thin-L" transform="matrix(1 0 0 1 794.166 1556)">
   <path d="M 88.4766 19.2871 C 91.2598 19.2871 92.7246 17.2363 92.7246 14.6484 L 92.7246 -85.1562 C 92.7246 -87.7441 91.2598 -89.8438 88.4766 -89.8438 C 86.5723 -89.8438 85.0586 -88.8184 83.6426 -87.5 L 53.9062 -58.5938 C 53.2227 -58.0078 52.4414 -57.666 51.3672 -57.666 L 30.5664 -57.666 C 24.8535 -57.666 20.5078 -53.2715 20.5078 -47.5586 L 20.5078 -22.2168 C 20.5078 -16.5039 24.8535 -12.1094 30.5664 -12.1094 L 51.3672 -12.1094 C 52.4414 -12.1094 53.2227 -11.8164 53.9062 -11.1816 L 83.6426 16.9922 C 85.0098 18.3105 86.5723 19.2871 88.4766 19.2871 Z"/>
  </g>
  <g id="Ultralight-L" transform="matrix(1 0 0 1 499.189 1556)">
   <path d="M 87.0117 18.6035 C 89.4531 18.6035 90.5762 16.748 90.5762 14.5508 L 90.5762 -85.1074 C 90.5762 -87.3535 89.4531 -89.1113 87.0605 -89.1113 C 85.4004 -89.1113 84.0332 -88.1836 83.0078 -87.2559 L 52.8809 -57.8125 C 52.1484 -57.1289 51.3184 -56.7871 50.1465 -56.7871 L 28.8574 -56.7871 C 23.877 -56.7871 19.5801 -52.4902 19.5801 -47.6074 L 19.5801 -22.0703 C 19.5801 -17.1875 23.877 -12.8906 28.8574 -12.8906 L 50.1465 -12.8906 C 51.3184 -12.8906 52.1484 -12.5488 52.8809 -11.8652 L 83.0078 16.6992 C 84.0332 17.627 85.4004 18.6035 87.0117 18.6035 Z"/>
  </g>
  <g id="Black-M" transform="matrix(1 0 0 1 2871.95 1126)">
   <path d="M 80.5664 13.4277 C 86.6211 13.4277 91.2598 8.78906 91.2598 2.73438 L 91.2598 -73.1445 C 91.2598 -79.1504 86.6211 -83.8379 80.5664 -83.8379 C 77.002 -83.8379 74.0723 -82.4219 70.3125 -79.0527 L 49.707 -60.6445 C 49.3652 -60.4004 49.2676 -60.3516 49.0234 -60.3516 L 36.5723 -60.3516 C 26.416 -60.3516 20.752 -54.4434 20.752 -43.8965 L 20.752 -26.4648 C 20.752 -15.9668 26.416 -10.0586 36.5723 -10.0586 L 49.0234 -10.0586 C 49.2676 -10.0586 49.4141 -10.0586 49.707 -9.81445 L 70.3125 8.64258 C 73.9258 11.9141 76.7578 13.4277 80.5664 13.4277 Z"/>
  </g>
  <g id="Heavy-M" transform="matrix(1 0 0 1 2576.9 1126)">
   <path d="M 78.9551 12.5 C 84.375 12.5 88.4766 8.39844 88.4766 2.97852 L 88.4766 -73.3398 C 88.4766 -78.7109 84.375 -82.9102 78.9551 -82.9102 C 75.6348 -82.9102 72.998 -81.6406 69.5312 -78.4668 L 48.6816 -59.5703 C 48.3398 -59.3262 48.1445 -59.2285 47.8516 -59.2285 L 34.9121 -59.2285 C 25.5371 -59.2285 20.3613 -53.8574 20.3613 -44.0918 L 20.3613 -26.3184 C 20.3613 -16.5039 25.5371 -11.1328 34.9121 -11.1328 L 47.8516 -11.1328 C 48.1445 -11.1328 48.3887 -11.084 48.6816 -10.8398 L 69.5312 8.10547 C 72.8516 11.1328 75.4883 12.5 78.9551 12.5 Z"/>
  </g>
  <g id="Bold-M" transform="matrix(1 0 0 1 2282.07 1126)">
   <path d="M 77.1484 11.5234 C 81.8359 11.5234 85.3516 7.95898 85.3516 3.32031 L 85.3516 -73.584 C 85.3516 -78.2227 81.8359 -81.9336 77.0996 -81.9336 C 74.1211 -81.9336 71.8262 -80.7129 68.6523 -77.7832 L 47.5586 -58.3984 C 47.2168 -58.1055 46.9238 -58.0078 46.582 -58.0078 L 33.1055 -58.0078 C 24.5605 -58.0078 19.873 -53.1738 19.873 -44.2383 L 19.873 -26.0742 C 19.873 -17.1387 24.5605 -12.3047 33.1055 -12.3047 L 46.582 -12.3047 C 46.9238 -12.3047 47.2656 -12.2559 47.5586 -11.9629 L 68.6523 7.51953 C 71.6309 10.2539 74.0234 11.5234 77.1484 11.5234 Z"/>
  </g>
  <g id="Semibold-M" transform="matrix(1 0 0 1 1986.63 1126)">
   <path d="M 75.8789 10.791 C 80.0781 10.791 83.2031 7.66602 83.2031 3.51562 L 83.2031 -73.7305 C 83.2031 -77.8809 80.0781 -81.2012 75.8301 -81.2012 C 73.0469 -81.2012 70.9961 -80.0781 68.0664 -77.3438 L 46.7285 -57.5684 C 46.4355 -57.2754 46.0938 -57.1777 45.7031 -57.1777 L 31.7871 -57.1777 C 23.877 -57.1777 19.5312 -52.7344 19.5312 -44.3848 L 19.5312 -25.9277 C 19.5312 -17.5781 23.877 -13.1348 31.7871 -13.1348 L 45.7031 -13.1348 C 46.0938 -13.1348 46.4355 -13.0371 46.7285 -12.7441 L 68.0664 7.12891 C 70.8008 9.66797 73.0469 10.791 75.8789 10.791 Z"/>
  </g>
  <g id="Medium-M" transform="matrix(1 0 0 1 1690.89 1126)">
   <path d="M 74.9512 10.2539 C 78.7598 10.2539 81.543 7.42188 81.543 3.66211 L 81.543 -73.8281 C 81.543 -77.6367 78.7598 -80.6641 74.8535 -80.6641 C 72.2656 -80.6641 70.4102 -79.5898 67.5781 -77.002 L 46.1426 -56.9336 C 45.8496 -56.6406 45.459 -56.543 45.0195 -56.543 L 30.8594 -56.543 C 23.3398 -56.543 19.2871 -52.3926 19.2871 -44.4824 L 19.2871 -25.8301 C 19.2871 -17.9199 23.3398 -13.7695 30.8594 -13.7695 L 45.0195 -13.7695 C 45.459 -13.7695 45.8496 -13.6719 46.1426 -13.3789 L 67.5781 6.78711 C 70.166 9.17969 72.3145 10.2539 74.9512 10.2539 Z"/>
  </g>
  <g id="Regular-M" transform="matrix(1 0 0 1 1395.45 1126)">
   <path d="M 73.6816 9.57031 C 77.002 9.57031 79.4434 7.12891 79.4434 3.85742 L 79.4434 -74.0234 C 79.4434 -77.2949 77.002 -79.9805 73.584 -79.9805 C 71.1914 -79.9805 69.5801 -78.9551 66.9922 -76.5137 L 45.3613 -56.1523 C 45.0684 -55.8594 44.6289 -55.7129 44.1406 -55.7129 L 29.5898 -55.7129 C 22.7051 -55.7129 18.9941 -51.9531 18.9941 -44.5801 L 18.9941 -25.6836 C 18.9941 -18.3594 22.7051 -14.5996 29.5898 -14.5996 L 44.1406 -14.5996 C 44.6289 -14.5996 45.0684 -14.4531 45.3613 -14.1602 L 66.9922 6.39648 C 69.3359 8.59375 71.2891 9.57031 73.6816 9.57031 Z"/>
  </g>
  <g id="Light-M" transform="matrix(1 0 0 1 1101.06 1126)">
   <path d="M 71.7773 8.59375 C 74.6094 8.59375 76.5625 6.49414 76.5625 3.71094 L 76.5625 -73.9746 C 76.5625 -76.7578 74.6094 -79.0527 71.6797 -79.0527 C 69.6777 -79.0527 68.2129 -78.125 66.1621 -76.2207 L 44.043 -55.0781 C 43.6035 -54.7363 43.1152 -54.541 42.5293 -54.541 L 27.3438 -54.541 C 21.3867 -54.541 17.8223 -50.9277 17.8223 -44.6777 L 17.8223 -25.4883 C 17.8223 -19.2383 21.3867 -15.625 27.3438 -15.625 L 42.5293 -15.625 C 43.1152 -15.625 43.6035 -15.4297 44.043 -15.0879 L 66.1621 5.95703 C 68.0664 7.71484 69.7266 8.59375 71.7773 8.59375 Z"/>
  </g>
  <g id="Thin-M" transform="matrix(1 0 0 1 807.423 1126)">
   <path d="M 69.1895 7.32422 C 71.4844 7.32422 72.7539 5.66406 72.7539 3.4668 L 72.7539 -73.9258 C 72.7539 -76.0742 71.4844 -77.832 69.1895 -77.832 C 67.5781 -77.832 66.3574 -77.0508 65.0879 -75.8301 L 42.2363 -53.6621 C 41.6992 -53.2227 41.1133 -52.9785 40.332 -52.9785 L 24.4141 -52.9785 C 19.6777 -52.9785 16.2598 -49.5605 16.2598 -44.7754 L 16.2598 -25.2441 C 16.2598 -20.4102 19.6777 -16.9922 24.4141 -16.9922 L 40.332 -16.9922 C 41.1133 -16.9922 41.6992 -16.748 42.2363 -16.3086 L 65.0879 5.37109 C 66.3086 6.54297 67.627 7.32422 69.1895 7.32422 Z"/>
  </g>
  <g id="Ultralight-M" transform="matrix(1 0 0 1 512.275 1126)">
   <path d="M 67.8711 6.68945 C 69.873 6.68945 70.8496 5.22461 70.8496 3.36914 L 70.8496 -73.877 C 70.8496 -75.7324 69.873 -77.1973 67.8711 -77.1973 C 66.5527 -77.1973 65.4297 -76.4648 64.502 -75.6348 L 41.3086 -52.9785 C 40.7227 -52.4414 40.1367 -52.1973 39.2578 -52.1973 L 22.8516 -52.1973 C 18.7988 -52.1973 15.4297 -48.877 15.4297 -44.8242 L 15.4297 -25.0977 C 15.4297 -21.0449 18.7988 -17.6758 22.8516 -17.6758 L 39.2578 -17.6758 C 40.1367 -17.6758 40.7227 -17.4316 41.3086 -16.9434 L 64.502 5.07812 C 65.4297 5.95703 66.5527 6.68945 67.8711 6.68945 Z"/>
  </g>
  <g id="Black-S" transform="matrix(1 0 0 1 2885.35 696)">
   <path d="M 63.0371 2.83203 C 67.7246 2.83203 71.3379 -0.78125 71.3379 -5.46875 L 71.3379 -64.9414 C 71.3379 -69.6289 67.7246 -73.2422 63.0371 -73.2422 C 60.2539 -73.2422 57.959 -72.168 55.0293 -69.5312 L 38.8672 -55.0781 C 38.623 -54.8828 38.5254 -54.834 38.3301 -54.834 L 28.5645 -54.834 C 20.6543 -54.834 16.2598 -50.2441 16.2598 -42.041 L 16.2598 -28.3691 C 16.2598 -20.166 20.6543 -15.5762 28.5645 -15.5762 L 38.3301 -15.5762 C 38.5254 -15.5762 38.6719 -15.5762 38.8672 -15.3809 L 55.0293 -0.878906 C 57.8613 1.66016 60.0586 2.83203 63.0371 2.83203 Z"/>
  </g>
  <g id="Heavy-S" transform="matrix(1 0 0 1 2589.67 696)">
   <path d="M 62.0117 2.24609 C 66.2598 2.24609 69.5312 -0.976562 69.5312 -5.22461 L 69.5312 -65.0879 C 69.5312 -69.3359 66.2598 -72.6562 62.0117 -72.6562 C 59.375 -72.6562 57.3242 -71.6309 54.541 -69.0918 L 38.2324 -54.3945 C 37.9883 -54.1992 37.8418 -54.1016 37.6465 -54.1016 L 27.5391 -54.1016 C 20.1172 -54.1016 16.0645 -49.9023 16.0645 -42.1387 L 16.0645 -28.2227 C 16.0645 -20.5078 20.1172 -16.2598 27.5391 -16.2598 L 37.6465 -16.2598 C 37.8418 -16.2598 38.0371 -16.2598 38.2324 -16.0645 L 54.541 -1.2207 C 57.1777 1.17188 59.2285 2.24609 62.0117 2.24609 Z"/>
  </g>
  <g id="Bold-S" transform="matrix(1 0 0 1 2294.08 696)">
   <path d="M 60.8398 1.5625 C 64.5996 1.5625 67.4805 -1.26953 67.4805 -4.98047 L 67.4805 -65.2832 C 67.4805 -69.043 64.5996 -72.0215 60.791 -72.0215 C 58.3984 -72.0215 56.5918 -71.0449 53.9551 -68.6523 L 37.5488 -53.6133 C 37.3047 -53.418 37.1094 -53.3203 36.8652 -53.3203 L 26.416 -53.3203 C 19.5312 -53.3203 15.8691 -49.5117 15.8691 -42.2852 L 15.8691 -28.125 C 15.8691 -20.8496 19.5312 -17.0898 26.416 -17.0898 L 36.8652 -17.0898 C 37.1094 -17.0898 37.3535 -17.041 37.5488 -16.7969 L 53.9551 -1.66016 C 56.3965 0.585938 58.3496 1.5625 60.8398 1.5625 Z"/>
  </g>
  <g id="Semibold-S" transform="matrix(1 0 0 1 1998.17 696)">
   <path d="M 60.0586 1.12305 C 63.4766 1.12305 66.0645 -1.41602 66.0645 -4.83398 L 66.0645 -65.3809 C 66.0645 -68.7988 63.4766 -71.5332 60.0098 -71.5332 C 57.7148 -71.5332 56.1035 -70.6055 53.5645 -68.3105 L 37.0605 -53.0762 C 36.8164 -52.8809 36.6211 -52.7832 36.3281 -52.7832 L 25.6348 -52.7832 C 19.1406 -52.7832 15.7227 -49.2676 15.7227 -42.3828 L 15.7227 -28.0273 C 15.7227 -21.1426 19.1406 -17.627 25.6348 -17.627 L 36.3281 -17.627 C 36.6211 -17.627 36.8652 -17.5293 37.0605 -17.334 L 53.5645 -1.9043 C 55.9082 0.195312 57.7148 1.12305 60.0586 1.12305 Z"/>
  </g>
  <g id="Medium-S" transform="matrix(1 0 0 1 1702.05 696)">
   <path d="M 59.4727 0.78125 C 62.5977 0.78125 64.9902 -1.5625 64.9902 -4.6875 L 64.9902 -65.4785 C 64.9902 -68.6523 62.5977 -71.1914 59.375 -71.1914 C 57.2266 -71.1914 55.7129 -70.3125 53.2715 -68.0664 L 36.6699 -52.6367 C 36.4746 -52.4414 36.2305 -52.3438 35.9375 -52.3438 L 25.0488 -52.3438 C 18.7988 -52.3438 15.5762 -49.0723 15.5762 -42.4316 L 15.5762 -27.9297 C 15.5762 -21.3379 18.7988 -18.0176 25.0488 -18.0176 L 35.9375 -18.0176 C 36.2305 -18.0176 36.4746 -17.9688 36.6699 -17.7246 L 53.2715 -2.14844 C 55.4688 -0.0976562 57.2754 0.78125 59.4727 0.78125 Z"/>
  </g>
  <g id="Regular-S" transform="matrix(1 0 0 1 1406.12 696)">
   <path d="M 58.6914 0.341797 C 61.4746 0.341797 63.623 -1.70898 63.623 -4.54102 L 63.623 -65.625 C 63.623 -68.4082 61.4746 -70.752 58.5938 -70.752 C 56.543 -70.752 55.2246 -69.873 52.8809 -67.7246 L 36.2305 -52.1484 C 35.9863 -51.9043 35.6934 -51.8066 35.4004 -51.8066 L 24.2676 -51.8066 C 18.4082 -51.8066 15.4297 -48.8281 15.4297 -42.5293 L 15.4297 -27.832 C 15.4297 -21.582 18.4082 -18.5547 24.2676 -18.5547 L 35.4004 -18.5547 C 35.6934 -18.5547 35.9863 -18.457 36.2305 -18.2617 L 52.8809 -2.39258 C 54.9805 -0.488281 56.6406 0.341797 58.6914 0.341797 Z"/>
  </g>
  <g id="Light-S" transform="matrix(1 0 0 1 1111.46 696)">
   <path d="M 56.9824 -0.488281 C 59.375 -0.488281 61.084 -2.29492 61.084 -4.6875 L 61.084 -65.5762 C 61.084 -67.9688 59.375 -69.9219 56.8848 -69.9219 C 55.1758 -69.9219 53.9551 -69.1406 52.1484 -67.4805 L 35.0098 -51.1719 C 34.7168 -50.9277 34.375 -50.7812 33.9355 -50.7812 L 22.2656 -50.7812 C 17.2363 -50.7812 14.4043 -47.9004 14.4043 -42.5781 L 14.4043 -27.6855 C 14.4043 -22.3633 17.2363 -19.4824 22.2656 -19.4824 L 33.9355 -19.4824 C 34.375 -19.4824 34.7168 -19.3359 35.0098 -19.0918 L 52.1484 -2.7832 C 53.8086 -1.26953 55.2246 -0.488281 56.9824 -0.488281 Z"/>
  </g>
  <g id="Thin-S" transform="matrix(1 0 0 1 817.457 696)">
   <path d="M 54.6875 -1.61133 C 56.5918 -1.61133 57.7148 -3.02734 57.7148 -4.83398 L 57.7148 -65.5762 C 57.7148 -67.3828 56.5918 -68.8477 54.6875 -68.8477 C 53.3691 -68.8477 52.3438 -68.2129 51.2207 -67.1387 L 33.4473 -49.9512 C 33.0566 -49.6094 32.6172 -49.4629 32.0312 -49.4629 L 19.6777 -49.4629 C 15.7715 -49.4629 13.0371 -46.7285 13.0371 -42.6758 L 13.0371 -27.4414 C 13.0371 -23.3887 15.7715 -20.6543 19.6777 -20.6543 L 32.0312 -20.6543 C 32.6172 -20.6543 33.0566 -20.5078 33.4473 -20.166 L 51.2207 -3.27148 C 52.2949 -2.29492 53.3691 -1.61133 54.6875 -1.61133 Z"/>
  </g>
  <g id="Ultralight-S" transform="matrix(1 0 0 1 522.138 696)">
   <path d="M 53.5156 -2.19727 C 55.1758 -2.19727 56.0059 -3.41797 56.0059 -4.98047 L 56.0059 -65.5273 C 56.0059 -67.041 55.1758 -68.3105 53.5156 -68.3105 C 52.3926 -68.3105 51.5137 -67.6758 50.6836 -66.9434 L 32.6172 -49.3164 C 32.1777 -48.9258 31.6895 -48.7305 31.0547 -48.7305 L 18.3105 -48.7305 C 14.9902 -48.7305 12.3047 -46.0938 12.3047 -42.7246 L 12.3047 -27.3438 C 12.3047 -23.9258 14.9902 -21.2891 18.3105 -21.2891 L 31.0547 -21.2891 C 31.6895 -21.2891 32.1777 -21.0938 32.6172 -20.7031 L 50.6836 -3.56445 C 51.5137 -2.83203 52.3926 -2.19727 53.5156 -2.19727 Z"/>
  </g>
 </g>
</svg>
